<svg xmlns="http://www.w3.org/2000/svg" xmlns:xlink="http://www.w3.org/1999/xlink" width="500" zoomAndPan="magnify" viewBox="0 0 375 374.999991" height="500" preserveAspectRatio="xMidYMid meet" version="1.0"><path fill="#ffffff" d="M 215.382812 73.757812 C 215.382812 75.902344 215.664062 76.636719 217.132812 78.046875 C 219.167969 80.082031 219.902344 79.574219 219.902344 76.183594 C 219.902344 74.714844 219.503906 73.8125 218.320312 72.683594 C 216.0625 70.480469 215.382812 70.707031 215.382812 73.757812 Z M 215.382812 73.757812 " fill-opacity="1" fill-rule="nonzero"/><path fill="#ffffff" d="M 223.855469 76.183594 C 222.441406 77.539062 222.160156 78.332031 222.160156 80.421875 C 222.160156 83.46875 223.121094 83.808594 225.265625 81.605469 C 226.339844 80.589844 226.679688 79.628906 226.679688 77.710938 C 226.679688 76.296875 226.394531 75 226.113281 74.828125 C 225.773438 74.601562 224.757812 75.222656 223.855469 76.183594 Z M 223.855469 76.183594 " fill-opacity="1" fill-rule="nonzero"/><path fill="#ffffff" d="M 156.140625 78.105469 C 155.011719 79.515625 154.839844 82.171875 155.746094 84.316406 C 156.707031 86.632812 157.777344 86.6875 158.851562 84.375 C 159.699219 82.453125 159.640625 81.042969 158.625 79.066406 C 157.664062 77.199219 157.101562 76.976562 156.140625 78.105469 Z M 156.140625 78.105469 " fill-opacity="1" fill-rule="nonzero"/><path fill="#ffffff" d="M 238.085938 79.347656 C 236.730469 81.042969 236.390625 84.882812 237.40625 86.40625 C 237.917969 87.140625 238.199219 87.027344 239.382812 85.671875 C 240.964844 83.863281 241.304688 80.53125 240.0625 78.839844 C 239.328125 77.820312 239.214844 77.878906 238.085938 79.347656 Z M 238.085938 79.347656 " fill-opacity="1" fill-rule="nonzero"/><path fill="#ffffff" d="M 228.257812 80.589844 C 226.679688 81.605469 226.339844 82.058594 225.546875 84.824219 C 225.097656 86.292969 225.210938 86.40625 226.621094 86.40625 C 228.542969 86.40625 231.027344 83.921875 231.535156 81.4375 C 231.816406 79.910156 231.761719 79.628906 230.855469 79.628906 C 230.234375 79.628906 229.105469 80.082031 228.257812 80.589844 Z M 228.257812 80.589844 " fill-opacity="1" fill-rule="nonzero"/><path fill="#ffffff" d="M 197.820312 83.128906 C 196.578125 85.105469 196.632812 88.777344 197.875 90.019531 C 198.667969 90.8125 201.265625 88.042969 201.265625 86.351562 C 201.265625 85.105469 199.796875 81.324219 199.289062 81.324219 C 199.117188 81.324219 198.496094 82.171875 197.820312 83.128906 Z M 197.820312 83.128906 " fill-opacity="1" fill-rule="nonzero"/><path fill="#ffffff" d="M 212.558594 82.171875 C 211.429688 83.527344 211.542969 87.027344 212.785156 88.949219 L 213.859375 90.585938 L 214.875 89.285156 C 216.34375 87.480469 216.230469 84.542969 214.648438 82.679688 C 213.460938 81.324219 213.292969 81.265625 212.558594 82.171875 Z M 212.558594 82.171875 " fill-opacity="1" fill-rule="nonzero"/><path fill="#ffffff" d="M 163.765625 83.128906 C 162.691406 84.597656 162.578125 87.480469 163.539062 89.511719 C 164.441406 91.488281 165.570312 91.261719 166.589844 88.890625 C 167.265625 87.308594 167.324219 86.460938 166.8125 84.996094 C 165.910156 82.171875 164.835938 81.550781 163.765625 83.128906 Z M 163.765625 83.128906 " fill-opacity="1" fill-rule="nonzero"/><path fill="#ffffff" d="M 180.140625 83.128906 C 179.632812 83.808594 179.238281 85.105469 179.238281 86.011719 C 179.238281 87.761719 180.652344 90.925781 181.496094 90.925781 C 182.34375 90.925781 183.757812 88.496094 183.757812 87.027344 C 183.757812 85.898438 181.78125 81.886719 181.214844 81.886719 C 181.101562 81.886719 180.59375 82.453125 180.140625 83.128906 Z M 180.140625 83.128906 " fill-opacity="1" fill-rule="nonzero"/><path fill="#ffffff" d="M 243.5625 83.863281 C 242.152344 84.597656 240.230469 87.761719 240.230469 89.230469 C 240.230469 90.304688 243.675781 89.398438 245.144531 87.929688 C 245.824219 87.253906 246.558594 85.839844 246.78125 84.824219 C 247.121094 83.300781 247.007812 83.019531 246.105469 83.019531 C 245.484375 83.074219 244.355469 83.414062 243.5625 83.863281 Z M 243.5625 83.863281 " fill-opacity="1" fill-rule="nonzero"/><path fill="#ffffff" d="M 202.167969 89.90625 C 200.472656 91.601562 200.132812 92.335938 200.132812 94.257812 C 200.132812 96.855469 200.078125 96.796875 202.109375 95.894531 C 204.597656 94.765625 206.007812 90.8125 204.710938 88.722656 C 204.257812 88.042969 203.804688 88.269531 202.167969 89.90625 Z M 202.167969 89.90625 " fill-opacity="1" fill-rule="nonzero"/><path fill="#ffffff" d="M 147.21875 89.511719 C 144.789062 90.585938 143.828125 92.394531 145.296875 93.183594 C 147.160156 94.144531 149.136719 93.804688 150.945312 92.28125 C 152.863281 90.699219 153.148438 89.511719 151.792969 89.003906 C 150.4375 88.496094 149.195312 88.609375 147.21875 89.511719 Z M 147.21875 89.511719 " fill-opacity="1" fill-rule="nonzero"/><path fill="#ffffff" d="M 155.519531 91.660156 C 155.519531 95.554688 156.59375 98.433594 159.132812 101.089844 C 164.894531 107.246094 164.835938 107.867188 158.117188 107.867188 C 152.976562 107.867188 152.695312 107.808594 149.871094 105.890625 C 148.234375 104.816406 146.710938 103.914062 146.425781 103.914062 C 144.675781 103.914062 147.839844 107.472656 150.664062 108.65625 C 151.734375 109.109375 155.40625 109.898438 158.738281 110.351562 C 167.324219 111.652344 169.582031 112.894531 175.851562 119.839844 C 181.160156 125.601562 182.628906 128.027344 182.628906 130.851562 C 182.628906 133.222656 180.199219 137.796875 177.828125 140.058594 C 175.851562 141.921875 170.769531 149.207031 168.734375 153.101562 C 166.984375 156.492188 168.28125 161.234375 172.6875 167.898438 C 174.324219 170.382812 175.453125 172.871094 175.90625 174.960938 C 177.542969 183.089844 183.136719 188.683594 190.871094 189.980469 L 193.074219 190.375 L 192.90625 187.214844 L 192.679688 183.996094 L 191.324219 185.292969 C 190.589844 185.972656 189.800781 186.367188 189.574219 186.140625 C 189.347656 185.914062 189.179688 184.277344 189.121094 182.527344 C 189.121094 180.777344 188.726562 178.6875 188.332031 177.894531 C 186.917969 175.410156 183.417969 170.894531 181.214844 168.859375 C 176.078125 164.003906 173.929688 158.636719 175.285156 153.894531 C 176.078125 151.015625 178.277344 148.867188 180.085938 149.261719 C 181.046875 149.488281 181.554688 148.8125 183.472656 144.972656 C 186.296875 139.152344 187.484375 138.476562 191.890625 139.71875 C 195.277344 140.734375 197.875 140.90625 197.875 140.113281 C 197.875 139.832031 197.085938 139.492188 196.179688 139.265625 C 194.035156 138.871094 193.359375 137.347656 194.824219 136.273438 C 195.390625 135.878906 197.480469 135.03125 199.402344 134.410156 C 204.425781 132.886719 205.894531 131.980469 208.773438 128.761719 C 212.164062 124.980469 213.519531 121.195312 214.253906 113.402344 C 214.988281 104.988281 215.15625 104.421875 217.640625 98.832031 C 218.769531 96.175781 219.902344 93.183594 220.125 92.109375 C 220.410156 90.414062 220.351562 90.304688 219.5625 90.980469 C 217.753906 92.449219 213.574219 98.324219 212.277344 101.203125 C 211.542969 102.839844 210.414062 107.246094 209.734375 110.917969 C 208.324219 118.992188 206.910156 122.4375 204.085938 125.035156 C 201.828125 127.066406 196.40625 129.382812 193.640625 129.554688 C 192.058594 129.609375 191.945312 129.496094 191.777344 127.351562 C 191.71875 126.109375 192.398438 122.324219 193.300781 118.878906 C 194.261719 115.492188 194.9375 112.609375 194.824219 112.554688 C 194.769531 112.496094 194.148438 112.78125 193.46875 113.289062 C 191.492188 114.644531 190.136719 117.976562 189.6875 122.269531 C 189.179688 126.785156 187.429688 130.964844 186.410156 129.949219 C 185.5625 129.101562 185.226562 119.894531 185.960938 117.070312 C 186.296875 115.828125 187.765625 113.0625 189.179688 110.972656 C 190.589844 108.882812 192.113281 106.398438 192.511719 105.4375 C 193.640625 102.726562 194.542969 94.933594 194.148438 92.054688 L 193.753906 89.511719 L 193.019531 91.207031 C 192.625 92.109375 192.285156 94.144531 192.226562 95.726562 C 192.171875 101.089844 191.382812 102.726562 186.582031 107.300781 C 183.644531 110.125 181.722656 112.441406 180.875 114.304688 L 179.691406 117.070312 L 176.753906 114.023438 C 175.058594 112.214844 172.179688 110.011719 169.695312 108.714844 C 167.4375 107.472656 164.613281 105.550781 163.480469 104.421875 C 161.054688 101.992188 158.625 97.25 157.441406 92.675781 C 156.253906 88.15625 155.519531 87.761719 155.519531 91.660156 Z M 155.519531 91.660156 " fill-opacity="1" fill-rule="nonzero"/><path fill="#ffffff" d="M 171.332031 91.207031 C 171.332031 93.523438 172.574219 95.5 174.777344 96.628906 C 176.867188 97.644531 176.921875 97.644531 177.261719 96.628906 C 177.941406 94.425781 175.90625 91.546875 172.855469 90.414062 C 171.445312 89.851562 171.332031 89.90625 171.332031 91.207031 Z M 171.332031 91.207031 " fill-opacity="1" fill-rule="nonzero"/><path fill="#ffffff" d="M 222.949219 91.714844 C 220.464844 94.199219 220.410156 95.441406 222.894531 95.441406 C 224.925781 95.441406 227.355469 93.410156 228.089844 91.039062 C 228.429688 89.90625 228.257812 89.792969 226.679688 89.792969 C 225.378906 89.792969 224.304688 90.359375 222.949219 91.714844 Z M 222.949219 91.714844 " fill-opacity="1" fill-rule="nonzero"/><path fill="#ffffff" d="M 233.058594 90.8125 C 230.855469 92.503906 230.066406 98.265625 231.988281 98.265625 C 232.832031 98.265625 234.867188 96.121094 235.375 94.652344 C 235.769531 93.523438 235.261719 89.792969 234.640625 89.792969 C 234.472656 89.792969 233.738281 90.246094 233.058594 90.8125 Z M 233.058594 90.8125 " fill-opacity="1" fill-rule="nonzero"/><path fill="#ffffff" d="M 186.917969 91.601562 C 185.789062 93.183594 185.734375 97.136719 186.863281 98.605469 C 187.652344 99.679688 187.710938 99.621094 188.839844 98.265625 C 190.082031 96.683594 190.308594 93.972656 189.292969 91.769531 C 188.5 90.019531 188.050781 90.019531 186.917969 91.601562 Z M 186.917969 91.601562 " fill-opacity="1" fill-rule="nonzero"/><path fill="#ffffff" d="M 247.121094 91.882812 C 245.597656 93.351562 245.316406 94.085938 245.316406 96.234375 C 245.316406 97.589844 245.597656 98.945312 245.878906 99.113281 C 246.21875 99.339844 247.234375 98.71875 248.136719 97.757812 C 249.890625 96.0625 250.285156 93.691406 249.324219 91.207031 C 248.929688 90.132812 248.757812 90.191406 247.121094 91.882812 Z M 247.121094 91.882812 " fill-opacity="1" fill-rule="nonzero"/><path fill="#ffffff" d="M 260.902344 91.941406 C 259.773438 94.144531 259.773438 94.933594 260.957031 97.417969 C 262.085938 99.789062 262.484375 99.847656 263.726562 97.984375 C 264.910156 96.234375 264.460938 92.902344 262.878906 91.320312 C 261.804688 90.246094 261.804688 90.246094 260.902344 91.941406 Z M 260.902344 91.941406 " fill-opacity="1" fill-rule="nonzero"/><path fill="#ffffff" d="M 166.25 93.804688 C 165.460938 95.726562 166.191406 99.28125 167.605469 100.46875 C 168.902344 101.542969 170.429688 98.832031 170.035156 96.234375 C 169.695312 94.3125 168.28125 92.054688 167.378906 92.054688 C 167.152344 92.054688 166.644531 92.84375 166.25 93.804688 Z M 166.25 93.804688 " fill-opacity="1" fill-rule="nonzero"/><path fill="#ffffff" d="M 255.253906 93.804688 C 254.179688 95.046875 253.785156 96.175781 253.785156 97.984375 C 253.785156 100.128906 253.898438 100.410156 254.914062 100.128906 C 256.835938 99.621094 258.304688 97.25 258.304688 94.539062 C 258.304688 91.488281 257.34375 91.261719 255.253906 93.804688 Z M 255.253906 93.804688 " fill-opacity="1" fill-rule="nonzero"/><path fill="#ffffff" d="M 206.6875 95.328125 C 205.5 97.703125 205.554688 99.28125 206.96875 101.65625 C 208.097656 103.519531 208.210938 103.519531 209 102.5 C 210.75 100.074219 210.640625 97.417969 208.664062 94.933594 L 207.589844 93.578125 Z M 206.6875 95.328125 " fill-opacity="1" fill-rule="nonzero"/><path fill="#ffffff" d="M 138.578125 96.234375 C 137.730469 98.492188 138.292969 100.636719 140.269531 102.5 C 141.851562 104.027344 141.851562 104.027344 142.472656 102.898438 C 143.601562 100.808594 143.152344 98.886719 141.175781 96.683594 L 139.199219 94.59375 Z M 138.578125 96.234375 " fill-opacity="1" fill-rule="nonzero"/><path fill="#ffffff" d="M 179.746094 96.96875 C 179.578125 99.734375 180.03125 100.976562 181.894531 102.726562 C 183.472656 104.195312 183.984375 104.421875 184.378906 103.855469 C 185.789062 101.65625 184.378906 98.378906 181.441406 96.855469 C 179.917969 96.0625 179.804688 96.0625 179.746094 96.96875 Z M 179.746094 96.96875 " fill-opacity="1" fill-rule="nonzero"/><path fill="#ffffff" d="M 237.691406 97.644531 C 237.238281 99.679688 238.59375 103.011719 240.175781 103.914062 C 241.191406 104.421875 241.472656 104.308594 241.984375 103.121094 C 242.773438 101.429688 242.320312 99.507812 240.738281 97.53125 C 239.214844 95.554688 238.140625 95.613281 237.691406 97.644531 Z M 237.691406 97.644531 " fill-opacity="1" fill-rule="nonzero"/><path fill="#ffffff" d="M 151.960938 97.363281 C 151.113281 99.507812 151.566406 102.164062 153.089844 103.914062 C 154.503906 105.609375 154.617188 105.664062 155.351562 104.703125 C 156.648438 102.953125 156.195312 100.636719 154.21875 98.433594 C 152.582031 96.683594 152.242188 96.515625 151.960938 97.363281 Z M 151.960938 97.363281 " fill-opacity="1" fill-rule="nonzero"/><path fill="#ffffff" d="M 225.605469 98.605469 C 224.417969 100.074219 224.191406 101.203125 224.417969 103.914062 C 224.589844 105.832031 224.703125 105.890625 226.394531 104.816406 C 228.257812 103.632812 229.105469 101.371094 228.65625 99 C 228.257812 96.742188 227.1875 96.628906 225.605469 98.605469 Z M 225.605469 98.605469 " fill-opacity="1" fill-rule="nonzero"/><path fill="#ffffff" d="M 174.496094 101.710938 C 173.421875 102.953125 173.027344 104.082031 173.027344 105.890625 C 173.027344 108.035156 173.140625 108.320312 174.15625 108.035156 C 176.078125 107.527344 177.542969 105.15625 177.542969 102.445312 C 177.542969 99.394531 176.585938 99.167969 174.496094 101.710938 Z M 174.496094 101.710938 " fill-opacity="1" fill-rule="nonzero"/><path fill="#ffffff" d="M 196.179688 101.035156 C 196.179688 102.164062 198.667969 104.476562 200.304688 104.929688 C 204.03125 105.890625 205.105469 104.589844 202.675781 101.992188 C 201.601562 100.808594 200.8125 100.523438 198.722656 100.523438 C 197.3125 100.523438 196.179688 100.75 196.179688 101.035156 Z M 196.179688 101.035156 " fill-opacity="1" fill-rule="nonzero"/><path fill="#ffffff" d="M 233.511719 101.765625 C 231.929688 103.40625 231.589844 104.761719 232.042969 107.074219 C 232.4375 109.390625 233.511719 109.5625 235.09375 107.527344 C 236.277344 106.003906 236.5625 104.140625 235.941406 101.765625 C 235.488281 100.1875 234.921875 100.1875 233.511719 101.765625 Z M 233.511719 101.765625 " fill-opacity="1" fill-rule="nonzero"/><path fill="#ffffff" d="M 251.1875 101.992188 C 250.960938 102.839844 251.132812 106.398438 251.527344 109.84375 C 251.921875 113.34375 252.089844 117.636719 251.921875 119.386719 C 251.359375 124.808594 247.914062 129.269531 242.605469 131.359375 C 238.707031 132.941406 237.859375 133.507812 236.164062 135.992188 C 235.261719 137.347656 234.1875 138.308594 233.851562 138.195312 C 233.453125 138.082031 232.832031 137.007812 232.4375 135.765625 C 231.140625 132.039062 231.875 128.480469 235.375 121.421875 C 238.253906 115.660156 239.328125 111.820312 238.03125 111.820312 C 237.804688 111.820312 237.125 112.894531 236.617188 114.25 C 236.109375 115.546875 234.472656 118.425781 232.890625 120.574219 C 231.367188 122.71875 230.066406 125.148438 230.011719 125.9375 C 230.011719 126.730469 229.785156 127.859375 229.5 128.480469 C 229.105469 129.496094 228.9375 129.382812 228.144531 127.519531 C 227.015625 124.867188 227.015625 123.625 228.203125 116.5625 C 228.9375 112.101562 228.992188 110.519531 228.542969 109.503906 C 227.921875 108.148438 227.863281 108.207031 227.863281 109.898438 C 227.808594 110.859375 227.128906 113.738281 226.339844 116.394531 C 224.191406 123.511719 224.589844 128.761719 227.808594 136.667969 C 230.742188 143.839844 231.140625 148.414062 229.164062 152.199219 C 225.492188 158.976562 224.871094 160.5 224.589844 163.269531 C 224.363281 165.414062 224.757812 168.464844 225.773438 173.492188 C 226.566406 177.445312 227.242188 181.339844 227.242188 182.1875 C 227.242188 185.292969 225.832031 188.230469 221.707031 193.257812 C 219.449219 196.136719 217.132812 199.242188 216.625 200.203125 C 215.496094 202.292969 215.4375 207.996094 216.457031 210.367188 C 217.191406 212.0625 217.246094 212.007812 218.261719 207.375 C 220.746094 196.082031 224.53125 193.199219 241.8125 189.472656 C 252.148438 187.269531 253.671875 186.761719 254.859375 185.066406 C 258.585938 179.757812 262.03125 177.445312 268.1875 176.203125 C 273.664062 175.128906 275.414062 174.113281 279.425781 169.707031 C 281.457031 167.390625 285.1875 164.117188 287.671875 162.363281 C 292.695312 158.808594 293.488281 158.015625 291.230469 158.636719 C 287.613281 159.710938 285.410156 160.953125 282.078125 163.945312 C 279.144531 166.542969 278.011719 167.222656 275.359375 167.730469 C 273.609375 168.070312 270.671875 168.746094 268.921875 169.199219 C 264.910156 170.160156 265.082031 170.160156 265.082031 169.140625 C 265.082031 168.632812 266.324219 167.050781 267.90625 165.527344 C 271.347656 162.140625 272.253906 160.164062 272.988281 153.78125 C 273.722656 147.570312 274.230469 145.480469 275.867188 141.527344 C 277.167969 138.308594 276.996094 136.78125 275.527344 138.703125 C 272.929688 141.976562 270.558594 148.019531 270.050781 152.59375 C 269.261719 159.65625 268.921875 160.5 266.773438 161.914062 C 265.703125 162.589844 263.613281 164.003906 262.144531 165.019531 C 258.246094 167.730469 258.023438 167.617188 258.132812 162.589844 C 258.191406 159.371094 258.644531 157.28125 259.714844 154.457031 C 260.5625 152.425781 261.128906 150.617188 261.015625 150.503906 C 260.449219 149.882812 259.320312 151.578125 257.175781 156.378906 C 254.800781 161.6875 254.746094 161.742188 255.199219 166.261719 C 255.421875 168.804688 255.59375 171.796875 255.535156 173.039062 C 255.421875 178.914062 249.15625 182.640625 242.492188 180.71875 C 240.910156 180.269531 240.117188 180.378906 238.085938 181.398438 C 234.414062 183.148438 234.1875 182.921875 230.519531 174.507812 C 227.808594 168.351562 227.921875 164.90625 231.027344 159.257812 C 232.324219 156.945312 233.625 153.667969 233.964844 152.03125 C 235.148438 146.382812 237.519531 143.050781 244.355469 137.460938 C 251.46875 131.644531 252.710938 129.777344 253.730469 123.113281 C 254.125 120.800781 254.914062 117.128906 255.535156 114.984375 C 256.777344 110.859375 256.554688 109.617188 254.972656 111.707031 C 254.464844 112.441406 253.84375 112.835938 253.617188 112.609375 C 253.390625 112.386719 253.222656 110.351562 253.222656 108.148438 C 253.222656 101.542969 252.089844 98.265625 251.1875 101.992188 Z M 251.1875 101.992188 " fill-opacity="1" fill-rule="nonzero"/><path fill="#ffffff" d="M 261.183594 102.21875 L 259.265625 103.460938 L 260.902344 104.535156 C 262.933594 105.832031 264.574219 105.890625 267.171875 104.703125 C 269.089844 103.742188 269.089844 103.742188 268.074219 102.671875 C 266.378906 101.035156 263.441406 100.808594 261.183594 102.21875 Z M 261.183594 102.21875 " fill-opacity="1" fill-rule="nonzero"/><path fill="#ffffff" d="M 218.207031 106.34375 C 218.207031 108.542969 219.394531 110.40625 221.59375 111.539062 C 223.007812 112.273438 223.234375 112.273438 223.515625 111.480469 C 224.25 109.617188 223.796875 108.261719 221.933594 106.398438 C 219.449219 103.914062 218.207031 103.855469 218.207031 106.34375 Z M 218.207031 106.34375 " fill-opacity="1" fill-rule="nonzero"/><path fill="#ffffff" d="M 141.230469 108.488281 C 139.59375 109.730469 138.125 113.851562 139.027344 114.757812 C 139.820312 115.546875 142.53125 114.078125 143.433594 112.328125 C 144.449219 110.296875 144.507812 107.300781 143.433594 107.300781 C 143.039062 107.300781 142.023438 107.808594 141.230469 108.488281 Z M 141.230469 108.488281 " fill-opacity="1" fill-rule="nonzero"/><path fill="#ffffff" d="M 241.984375 108.375 C 241.078125 110.011719 241.25 112.835938 242.320312 114.699219 C 243.449219 116.621094 244.183594 116.5625 245.203125 114.417969 C 246.105469 112.667969 245.371094 109.730469 243.621094 108.148438 C 242.660156 107.246094 242.546875 107.246094 241.984375 108.375 Z M 241.984375 108.375 " fill-opacity="1" fill-rule="nonzero"/><path fill="#ffffff" d="M 260.957031 108.207031 C 259.433594 109.054688 259.375 109.109375 260.28125 110.125 C 261.578125 111.59375 264.121094 112.046875 266.492188 111.253906 C 268.863281 110.464844 268.921875 110.011719 267 108.488281 C 265.25 107.074219 263.160156 107.019531 260.957031 108.207031 Z M 260.957031 108.207031 " fill-opacity="1" fill-rule="nonzero"/><path fill="#ffffff" d="M 201.265625 109.5625 C 201.265625 111.480469 202.507812 113.515625 204.484375 114.757812 C 206.796875 116.167969 207.757812 115.546875 207.195312 113.007812 C 206.515625 109.84375 201.265625 106.738281 201.265625 109.5625 Z M 201.265625 109.5625 " fill-opacity="1" fill-rule="nonzero"/><path fill="#ffffff" d="M 272.253906 109.054688 C 271.179688 109.675781 269.597656 112.835938 269.597656 114.363281 C 269.597656 117.015625 274.851562 113.515625 275.753906 110.238281 C 276.261719 108.542969 276.207031 108.429688 274.792969 108.429688 C 273.949219 108.429688 272.816406 108.714844 272.253906 109.054688 Z M 272.253906 109.054688 " fill-opacity="1" fill-rule="nonzero"/><path fill="#ffffff" d="M 127.28125 109.5625 C 125.476562 110.691406 130.21875 113.796875 133.269531 113.402344 C 135.359375 113.175781 135.582031 112.160156 133.832031 110.40625 C 132.363281 108.941406 128.976562 108.488281 127.28125 109.5625 Z M 127.28125 109.5625 " fill-opacity="1" fill-rule="nonzero"/><path fill="#ffffff" d="M 148.742188 113.175781 C 148.742188 115.039062 149.082031 116.113281 150.210938 117.410156 C 152.019531 119.558594 153.148438 119.613281 153.597656 117.636719 C 154.109375 115.71875 152.582031 112.894531 150.378906 111.59375 L 148.742188 110.632812 Z M 148.742188 113.175781 " fill-opacity="1" fill-rule="nonzero"/><path fill="#ffffff" d="M 156.085938 113.34375 C 156.140625 115.433594 159.359375 118.03125 161.84375 118.03125 C 163.652344 118.03125 163.59375 118.144531 162.804688 115.828125 C 162.128906 113.910156 159.8125 112.386719 157.496094 112.386719 C 156.535156 112.386719 156.085938 112.667969 156.085938 113.34375 Z M 156.085938 113.34375 " fill-opacity="1" fill-rule="nonzero"/><path fill="#ffffff" d="M 197.3125 114.417969 C 197.3125 116 197.761719 116.902344 199.230469 118.371094 C 201.488281 120.628906 202.28125 120.742188 202.675781 118.992188 C 203.183594 117.070312 202.054688 114.757812 200.023438 113.515625 C 197.535156 111.988281 197.3125 112.046875 197.3125 114.417969 Z M 197.3125 114.417969 " fill-opacity="1" fill-rule="nonzero"/><path fill="#ffffff" d="M 216.511719 116.675781 C 216.511719 118.765625 216.792969 119.558594 218.207031 120.914062 C 220.296875 123.003906 221.03125 122.664062 221.03125 119.5 C 221.03125 117.636719 220.691406 116.789062 219.449219 115.605469 C 217.191406 113.402344 216.511719 113.628906 216.511719 116.675781 Z M 216.511719 116.675781 " fill-opacity="1" fill-rule="nonzero"/><path fill="#ffffff" d="M 127.847656 116.960938 C 127.847656 118.203125 128.410156 119.273438 129.765625 120.628906 C 132.25 123.113281 133.492188 123.171875 133.492188 120.6875 C 133.492188 118.652344 132.816406 117.582031 130.671875 116.113281 C 128.582031 114.757812 127.847656 114.984375 127.847656 116.960938 Z M 127.847656 116.960938 " fill-opacity="1" fill-rule="nonzero"/><path fill="#ffffff" d="M 283.886719 116.226562 C 282.136719 116.507812 279.765625 119.5 279.765625 121.421875 C 279.765625 123.003906 279.820312 123.003906 281.402344 122.492188 C 283.433594 121.757812 285.242188 119.894531 285.695312 117.976562 C 286.089844 116.28125 285.695312 115.886719 283.886719 116.226562 Z M 283.886719 116.226562 " fill-opacity="1" fill-rule="nonzero"/><path fill="#ffffff" d="M 247.179688 117.183594 C 245.539062 117.863281 243.621094 120.460938 243.621094 121.984375 C 243.621094 122.832031 246.613281 122.664062 248.027344 121.648438 C 249.269531 120.800781 250.960938 118.089844 250.960938 116.902344 C 250.960938 116.113281 249.378906 116.226562 247.179688 117.183594 Z M 247.179688 117.183594 " fill-opacity="1" fill-rule="nonzero"/><path fill="#ffffff" d="M 269.597656 117.695312 C 269.597656 120.742188 272.308594 123.679688 275.191406 123.679688 C 276.148438 123.679688 276.261719 123.453125 275.753906 121.816406 C 275.472656 120.855469 274.511719 119.332031 273.550781 118.425781 C 271.746094 116.789062 269.597656 116.394531 269.597656 117.695312 Z M 269.597656 117.695312 " fill-opacity="1" fill-rule="nonzero"/><path fill="#ffffff" d="M 135.980469 119.558594 C 136.488281 121.648438 139.367188 124.246094 141.117188 124.246094 C 142.644531 124.246094 142.867188 123.511719 141.964844 121.195312 C 141.402344 119.671875 138.804688 118.03125 136.824219 118.03125 C 135.808594 118.03125 135.695312 118.257812 135.980469 119.558594 Z M 135.980469 119.558594 " fill-opacity="1" fill-rule="nonzero"/><path fill="#ffffff" d="M 257.738281 120.007812 C 257.738281 121.757812 260.335938 124.640625 262.425781 125.148438 C 263.78125 125.488281 263.953125 125.316406 263.953125 124.019531 C 263.953125 121.929688 262.484375 119.894531 260.449219 119.21875 C 257.964844 118.371094 257.738281 118.425781 257.738281 120.007812 Z M 257.738281 120.007812 " fill-opacity="1" fill-rule="nonzero"/><path fill="#ffffff" d="M 116.101562 120.179688 L 114.746094 121.195312 L 116.210938 122.15625 C 117.964844 123.339844 121.578125 123.398438 123.046875 122.324219 C 124.121094 121.535156 124.121094 121.476562 123.101562 120.347656 C 121.746094 118.824219 117.964844 118.765625 116.101562 120.179688 Z M 116.101562 120.179688 " fill-opacity="1" fill-rule="nonzero"/><path fill="#ffffff" d="M 167.265625 120.121094 C 165.855469 120.460938 166.871094 122.269531 169.074219 123.398438 C 170.9375 124.359375 174.496094 124.527344 175.003906 123.679688 C 175.230469 123.339844 174.609375 122.324219 173.648438 121.421875 C 172.011719 119.78125 170.089844 119.386719 167.265625 120.121094 Z M 167.265625 120.121094 " fill-opacity="1" fill-rule="nonzero"/><path fill="#ffffff" d="M 237.40625 123.339844 C 237.40625 125.65625 239.046875 127.859375 241.363281 128.648438 C 243.054688 129.269531 243.054688 129.214844 243.054688 127.351562 C 243.054688 125.203125 241.417969 123.113281 238.988281 122.097656 C 237.464844 121.476562 237.40625 121.476562 237.40625 123.339844 Z M 237.40625 123.339844 " fill-opacity="1" fill-rule="nonzero"/><path fill="#ffffff" d="M 153.824219 123.511719 C 152.695312 124.527344 151.960938 125.824219 151.734375 127.179688 L 151.398438 129.269531 L 153.261719 128.761719 C 154.21875 128.480469 155.40625 127.972656 155.859375 127.578125 C 156.535156 127.011719 157.777344 123.679688 157.777344 122.378906 C 157.777344 121.421875 155.40625 122.097656 153.824219 123.511719 Z M 153.824219 123.511719 " fill-opacity="1" fill-rule="nonzero"/><path fill="#ffffff" d="M 194.824219 122.945312 L 193.132812 123.847656 L 194.429688 124.867188 C 196.011719 126.164062 200.53125 126.335938 202.054688 125.203125 C 203.070312 124.46875 203.015625 124.359375 201.546875 123.226562 C 199.738281 121.757812 197.140625 121.648438 194.824219 122.945312 Z M 194.824219 122.945312 " fill-opacity="1" fill-rule="nonzero"/><path fill="#ffffff" d="M 145.355469 124.019531 C 144.507812 126.222656 144.675781 129.722656 145.917969 134.410156 C 146.992188 138.589844 147.386719 144.6875 146.710938 147.285156 L 146.3125 148.585938 L 144.734375 147.058594 C 143.828125 146.214844 142.757812 144.179688 142.191406 142.261719 C 141.625 140.394531 141.003906 138.929688 140.722656 138.929688 C 139.648438 138.929688 140.382812 142.316406 142.246094 145.929688 C 143.320312 148.132812 144.222656 150.222656 144.222656 150.675781 C 144.222656 151.125 143.320312 152.652344 142.191406 154.007812 C 141.0625 155.363281 139.59375 157.902344 138.914062 159.710938 C 137.222656 164.058594 136.148438 164.511719 127.847656 164.566406 C 121.578125 164.625 121.238281 164.566406 118.980469 162.988281 C 117.171875 161.800781 116.269531 160.613281 115.480469 158.46875 L 114.347656 155.589844 L 114.347656 158.355469 C 114.292969 161.914062 116.15625 165.246094 119.375 167.390625 C 122.253906 169.3125 121.804688 170.101562 117.171875 171.457031 C 115.421875 171.964844 112.257812 173.152344 110.058594 174.113281 C 102.882812 177.273438 100.0625 176.316406 96.730469 169.425781 C 95.597656 167.109375 94.414062 165.132812 94.132812 165.074219 C 93 164.679688 97.179688 175.691406 98.761719 177.332031 C 100.90625 179.535156 105.257812 180.945312 109.832031 180.945312 C 113.164062 180.945312 114.125 180.605469 119.601562 177.953125 C 122.933594 176.257812 125.757812 175.070312 125.925781 175.242188 C 126.320312 175.636719 124.121094 179.929688 122.3125 182.246094 C 121.578125 183.261719 120.054688 184.671875 118.921875 185.351562 C 117.851562 186.027344 117.230469 186.707031 117.566406 186.820312 C 118.359375 187.042969 120.222656 186.085938 122.933594 183.996094 C 126.546875 181.113281 125.363281 184.558594 120.957031 189.753906 C 116.609375 194.839844 115.421875 196.644531 115.421875 197.945312 C 115.480469 198.792969 115.648438 198.621094 116.210938 197.324219 C 116.664062 196.304688 118.585938 194.21875 120.5625 192.578125 C 125.136719 188.796875 125.585938 188.117188 128.296875 182.355469 C 130.839844 176.765625 133.664062 174.054688 140.214844 170.722656 C 143.601562 168.972656 145.128906 168.578125 148.460938 168.40625 C 151.90625 168.183594 152.976562 168.40625 155.632812 169.652344 C 159.585938 171.515625 163.707031 175.128906 165.175781 178.007812 C 165.796875 179.25 166.476562 181.566406 166.644531 183.148438 C 167.039062 187.101562 172.234375 196.195312 175.171875 198.285156 C 177.488281 199.863281 181.722656 201.617188 186.636719 202.96875 C 193.980469 205.003906 197.253906 207.433594 198.441406 211.667969 C 199.230469 214.546875 199.175781 216.46875 198.046875 224.9375 C 196.972656 233.296875 197.425781 237.984375 199.851562 243.351562 C 200.980469 245.722656 206.628906 253.574219 207.25 253.574219 C 207.308594 253.574219 207.363281 252.839844 207.363281 251.992188 C 207.25 248.714844 210.242188 244.59375 215.550781 240.695312 C 218.261719 238.664062 220.464844 236.800781 220.464844 236.515625 C 220.464844 235.558594 218.941406 236.121094 215.777344 238.324219 C 214.027344 239.566406 212.445312 240.582031 212.277344 240.582031 C 212.105469 240.582031 212.105469 239.511719 212.277344 238.15625 L 212.558594 235.78125 L 210.75 239.453125 C 209.058594 243.011719 206.6875 245.609375 205.894531 244.820312 C 205.726562 244.648438 205.5 238.832031 205.5 231.941406 C 205.441406 218.050781 205.105469 216.074219 201.488281 208.5625 C 199.289062 203.929688 194.65625 198.621094 190.648438 196.082031 C 189.179688 195.121094 186.296875 193.707031 184.152344 192.917969 C 176.246094 189.925781 173.308594 186.707031 171.613281 178.914062 C 170.9375 175.863281 169.863281 173.207031 168.058594 170.160156 C 165.796875 166.429688 164.949219 165.527344 162.636719 164.339844 C 160.941406 163.550781 158.457031 162.875 156.480469 162.761719 L 153.148438 162.476562 L 153.429688 160.164062 L 153.710938 157.847656 L 151.792969 160.105469 C 150.777344 161.347656 149.871094 162.535156 149.871094 162.703125 C 149.871094 163.210938 145.578125 163.832031 144.5625 163.4375 C 142.472656 162.648438 143.488281 158.1875 146.484375 155.023438 C 149.136719 152.257812 149.871094 150.503906 149.871094 146.550781 C 149.871094 144.292969 150.378906 142.542969 151.847656 139.4375 C 152.921875 137.121094 153.9375 134.464844 154.164062 133.5625 C 154.445312 132.152344 154.164062 132.433594 152.355469 135.085938 C 150.042969 138.476562 149.308594 139.039062 149.308594 137.347656 C 149.308594 136.78125 148.96875 135.199219 148.515625 133.789062 C 148.066406 132.433594 147.5 129.328125 147.332031 126.898438 C 146.933594 122.4375 146.3125 121.476562 145.355469 124.019531 Z M 145.355469 124.019531 " fill-opacity="1" fill-rule="nonzero"/><path fill="#ffffff" d="M 160.601562 125.148438 C 160.601562 126.730469 161.054688 127.632812 162.578125 129.15625 C 164.667969 131.246094 165.855469 131.359375 166.136719 129.554688 C 166.417969 127.632812 165.234375 125.429688 163.3125 124.246094 C 160.828125 122.71875 160.601562 122.777344 160.601562 125.148438 Z M 160.601562 125.148438 " fill-opacity="1" fill-rule="nonzero"/><path fill="#ffffff" d="M 177.828125 124.527344 C 178.730469 127.066406 178.785156 134.128906 177.882812 136.667969 L 177.035156 139.210938 L 178.675781 137.402344 C 180.59375 135.257812 181.722656 131.585938 181.273438 129.042969 C 181.101562 128.085938 180.140625 126.445312 179.183594 125.375 C 178.054688 124.074219 177.601562 123.792969 177.828125 124.527344 Z M 177.828125 124.527344 " fill-opacity="1" fill-rule="nonzero"/><path fill="#ffffff" d="M 269.371094 126.050781 C 268.019531 127.914062 268.242188 130.683594 269.824219 132.546875 L 271.238281 134.128906 L 272.082031 132.039062 C 273.214844 129.441406 273.214844 129.101562 272.082031 126.730469 C 271.011719 124.46875 270.558594 124.359375 269.371094 126.050781 Z M 269.371094 126.050781 " fill-opacity="1" fill-rule="nonzero"/><path fill="#ffffff" d="M 122.652344 126.277344 C 120.617188 127.351562 120.675781 127.972656 122.765625 129.042969 C 124.851562 130.117188 125.644531 130.117188 128.296875 128.988281 L 130.386719 128.140625 L 128.808594 126.730469 C 127 125.203125 124.910156 125.035156 122.652344 126.277344 Z M 122.652344 126.277344 " fill-opacity="1" fill-rule="nonzero"/><path fill="#ffffff" d="M 277.167969 126.957031 C 274.738281 128.875 274.058594 131.644531 275.472656 133.5625 C 276.148438 134.523438 276.375 134.578125 277.222656 133.84375 C 278.746094 132.546875 279.820312 129.609375 279.425781 127.691406 C 279.03125 125.65625 278.804688 125.601562 277.167969 126.957031 Z M 277.167969 126.957031 " fill-opacity="1" fill-rule="nonzero"/><path fill="#ffffff" d="M 102.996094 128.820312 C 102.996094 130.738281 103.335938 131.472656 105.03125 133.167969 C 106.667969 134.804688 107.121094 135.03125 107.570312 134.355469 C 108.644531 132.660156 108.136719 130.398438 106.160156 128.421875 C 103.675781 125.9375 102.996094 125.996094 102.996094 128.820312 Z M 102.996094 128.820312 " fill-opacity="1" fill-rule="nonzero"/><path fill="#ffffff" d="M 134.171875 126.957031 C 133.269531 127.578125 133.71875 128.875 135.246094 129.777344 C 136.65625 130.683594 140.328125 130.796875 141.683594 130.003906 C 142.644531 129.496094 142.585938 129.328125 141.230469 127.972656 C 140.101562 126.84375 139.199219 126.503906 137.335938 126.503906 C 135.980469 126.503906 134.566406 126.730469 134.171875 126.957031 Z M 134.171875 126.957031 " fill-opacity="1" fill-rule="nonzero"/><path fill="#ffffff" d="M 215.722656 127.238281 L 214.082031 127.972656 L 216.003906 129.554688 C 217.585938 130.910156 218.207031 131.078125 220.351562 130.851562 C 221.652344 130.738281 222.949219 130.398438 223.175781 130.175781 C 223.796875 129.554688 220.015625 126.503906 218.601562 126.503906 C 217.925781 126.558594 216.625 126.84375 215.722656 127.238281 Z M 215.722656 127.238281 " fill-opacity="1" fill-rule="nonzero"/><path fill="#ffffff" d="M 255.199219 128.3125 C 255.761719 130.34375 258.644531 132.714844 260.5625 132.714844 C 261.75 132.714844 262.257812 132.433594 262.257812 131.8125 C 262.257812 129.441406 259.265625 127.066406 256.328125 127.066406 C 255.027344 127.066406 254.914062 127.238281 255.199219 128.3125 Z M 255.199219 128.3125 " fill-opacity="1" fill-rule="nonzero"/><path fill="#ffffff" d="M 168.226562 130.511719 C 167.097656 132.265625 170.710938 137.234375 173.082031 137.234375 C 174.550781 137.234375 174.496094 134.464844 173.027344 132.546875 C 171.726562 130.964844 168.734375 129.667969 168.226562 130.511719 Z M 168.226562 130.511719 " fill-opacity="1" fill-rule="nonzero"/><path fill="#ffffff" d="M 283.378906 130.511719 C 281.289062 131.132812 279.992188 132.433594 279.480469 134.523438 C 279.03125 136.386719 279.820312 136.554688 282.8125 135.3125 C 284.847656 134.464844 286.542969 132.488281 286.542969 130.910156 C 286.542969 129.777344 286.03125 129.722656 283.378906 130.511719 Z M 283.378906 130.511719 " fill-opacity="1" fill-rule="nonzero"/><path fill="#ffffff" d="M 115.988281 132.09375 C 115.988281 134.523438 119.714844 137.796875 122.480469 137.796875 C 123.78125 137.796875 123.160156 135.144531 121.410156 133.394531 C 119.996094 131.980469 115.988281 131.023438 115.988281 132.09375 Z M 115.988281 132.09375 " fill-opacity="1" fill-rule="nonzero"/><path fill="#ffffff" d="M 211.203125 133.054688 C 210.46875 134.917969 210.921875 136.273438 212.785156 138.136719 C 214.875 140.226562 215.835938 140.507812 216.285156 139.210938 C 216.851562 137.796875 216.003906 135.484375 214.253906 133.789062 C 212.445312 131.925781 211.710938 131.753906 211.203125 133.054688 Z M 211.203125 133.054688 " fill-opacity="1" fill-rule="nonzero"/><path fill="#ffffff" d="M 133.550781 133.335938 L 132.195312 133.84375 L 133.492188 135.257812 C 135.074219 136.894531 137.730469 137.515625 139.820312 136.726562 C 141.738281 135.992188 141.402344 134.75 139.085938 133.5625 C 137.277344 132.601562 135.527344 132.546875 133.550781 133.335938 Z M 133.550781 133.335938 " fill-opacity="1" fill-rule="nonzero"/><path fill="#ffffff" d="M 252.375 133.789062 C 250.566406 134.578125 249.269531 136.386719 248.871094 138.53125 L 248.535156 140.566406 L 250.453125 140.058594 C 252.542969 139.4375 254.914062 137.007812 254.914062 135.371094 C 254.914062 134.863281 254.914062 134.242188 254.972656 133.957031 C 254.972656 133.335938 253.671875 133.28125 252.375 133.789062 Z M 252.375 133.789062 " fill-opacity="1" fill-rule="nonzero"/><path fill="#ffffff" d="M 93.398438 135.257812 C 93.398438 136.839844 96.21875 140.058594 97.632812 140.058594 C 98.027344 140.058594 98.761719 140.226562 99.269531 140.394531 C 99.949219 140.679688 100.175781 140.394531 100.175781 139.210938 C 100.175781 137.574219 97.464844 134.410156 96.050781 134.410156 C 95.542969 134.410156 94.808594 134.242188 94.300781 134.070312 C 93.621094 133.789062 93.398438 134.070312 93.398438 135.257812 Z M 93.398438 135.257812 " fill-opacity="1" fill-rule="nonzero"/><path fill="#ffffff" d="M 163.59375 135.933594 C 163.820312 137.347656 164.554688 138.644531 165.683594 139.605469 C 168.058594 141.808594 169.074219 141.640625 169.074219 139.152344 C 169.074219 136.78125 166.53125 133.84375 164.5 133.84375 C 163.425781 133.84375 163.3125 134.070312 163.59375 135.933594 Z M 163.59375 135.933594 " fill-opacity="1" fill-rule="nonzero"/><path fill="#ffffff" d="M 206.347656 135.484375 C 205.386719 137.289062 205.667969 140.339844 206.96875 141.976562 C 208.492188 143.898438 209 143.839844 209.679688 141.46875 C 210.242188 139.324219 209.960938 137.628906 208.71875 135.652344 C 207.703125 134.128906 207.136719 134.070312 206.347656 135.484375 Z M 206.347656 135.484375 " fill-opacity="1" fill-rule="nonzero"/><path fill="#ffffff" d="M 219.902344 136.160156 C 219.902344 138.476562 222.554688 141.1875 224.925781 141.1875 C 226.566406 141.1875 226.566406 141.128906 226.058594 139.378906 C 225.433594 137.121094 224.703125 136.386719 222.046875 135.257812 L 219.902344 134.410156 Z M 219.902344 136.160156 " fill-opacity="1" fill-rule="nonzero"/><path fill="#ffffff" d="M 111.300781 135.371094 C 109.945312 136.667969 111.636719 142.371094 113.503906 143.105469 C 115.816406 144.011719 116.15625 139.324219 113.953125 136.726562 C 112.484375 134.917969 111.976562 134.691406 111.300781 135.371094 Z M 111.300781 135.371094 " fill-opacity="1" fill-rule="nonzero"/><path fill="#ffffff" d="M 125.585938 136.726562 C 125.585938 138.816406 129.371094 141.75 132.082031 141.75 C 133.324219 141.75 133.097656 139.773438 131.628906 138.082031 C 130.164062 136.332031 125.585938 135.371094 125.585938 136.726562 Z M 125.585938 136.726562 " fill-opacity="1" fill-rule="nonzero"/><path fill="#ffffff" d="M 264.796875 137.515625 C 264.007812 138.25 263.386719 139.550781 263.386719 140.394531 C 263.386719 141.640625 263.554688 141.808594 264.6875 141.527344 C 265.363281 141.355469 266.210938 141.1875 266.550781 141.1875 C 267.453125 141.1875 269.996094 138.53125 270.332031 137.234375 C 270.785156 135.425781 266.605469 135.652344 264.796875 137.515625 Z M 264.796875 137.515625 " fill-opacity="1" fill-rule="nonzero"/><path fill="#ffffff" d="M 286.65625 137.742188 C 284.566406 139.664062 284 141.527344 284.847656 143.726562 L 285.46875 145.421875 L 287.445312 143.332031 C 288.96875 141.640625 289.363281 140.734375 289.363281 138.984375 C 289.363281 136.046875 288.742188 135.765625 286.65625 137.742188 Z M 286.65625 137.742188 " fill-opacity="1" fill-rule="nonzero"/><path fill="#ffffff" d="M 155.746094 139.152344 C 154.390625 140.507812 153.824219 141.582031 153.824219 142.824219 C 153.824219 143.785156 153.9375 144.574219 154.050781 144.574219 C 154.109375 144.574219 155.011719 144.292969 156.027344 143.953125 C 157.949219 143.277344 159.472656 140.960938 159.472656 138.644531 C 159.472656 136.667969 158.0625 136.839844 155.746094 139.152344 Z M 155.746094 139.152344 " fill-opacity="1" fill-rule="nonzero"/><path fill="#ffffff" d="M 299.871094 138.871094 C 298.738281 140.058594 298.289062 141.128906 298.289062 142.542969 C 298.289062 145.195312 299.304688 146.550781 300.546875 145.59375 C 301.902344 144.40625 303.03125 141.242188 302.636719 139.4375 C 302.128906 137.121094 301.621094 137.0625 299.871094 138.871094 Z M 299.871094 138.871094 " fill-opacity="1" fill-rule="nonzero"/><path fill="#ffffff" d="M 256.609375 138.871094 C 255.535156 140.960938 255.933594 143.953125 257.511719 145.535156 C 258.867188 146.890625 259.039062 146.949219 259.546875 146.042969 C 260.394531 144.519531 260.222656 140.734375 259.207031 139.210938 C 258.078125 137.515625 257.398438 137.402344 256.609375 138.871094 Z M 256.609375 138.871094 " fill-opacity="1" fill-rule="nonzero"/><path fill="#ffffff" d="M 104.296875 140.679688 C 104.691406 142.710938 107.96875 146.269531 109.492188 146.269531 C 110.058594 146.269531 110.339844 145.703125 110.339844 144.574219 C 110.339844 142.484375 107.855469 139.664062 105.59375 139.152344 C 103.957031 138.757812 103.957031 138.816406 104.296875 140.679688 Z M 104.296875 140.679688 " fill-opacity="1" fill-rule="nonzero"/><path fill="#ffffff" d="M 279.425781 141.414062 C 277.449219 143.390625 276.941406 145.648438 278.011719 147.34375 C 278.464844 148.019531 278.917969 147.792969 280.554688 146.15625 C 282.25 144.460938 282.589844 143.726562 282.589844 141.808594 C 282.589844 138.984375 281.910156 138.929688 279.425781 141.414062 Z M 279.425781 141.414062 " fill-opacity="1" fill-rule="nonzero"/><path fill="#ffffff" d="M 122.199219 141.75 C 122.199219 143.390625 125.023438 146.214844 127.167969 146.609375 C 128.75 146.949219 128.976562 146.835938 128.976562 145.761719 C 128.976562 143.785156 127.902344 142.261719 125.871094 141.414062 C 123.214844 140.339844 122.199219 140.394531 122.199219 141.75 Z M 122.199219 141.75 " fill-opacity="1" fill-rule="nonzero"/><path fill="#ffffff" d="M 242.433594 142.429688 C 241.25 144.40625 241.25 147.34375 242.546875 148.867188 C 243.449219 149.996094 243.789062 149.882812 244.917969 148.019531 C 246.046875 146.101562 246.160156 144.066406 245.203125 142.035156 C 244.355469 140.171875 243.847656 140.226562 242.433594 142.429688 Z M 242.433594 142.429688 " fill-opacity="1" fill-rule="nonzero"/><path fill="#ffffff" d="M 292.980469 141.414062 C 290.945312 142.316406 289.363281 144.292969 289.363281 146.042969 C 289.363281 147.738281 289.816406 147.964844 291.679688 147.285156 C 293.828125 146.550781 295.578125 144.292969 295.578125 142.261719 C 295.578125 140.394531 295.40625 140.339844 292.980469 141.414062 Z M 292.980469 141.414062 " fill-opacity="1" fill-rule="nonzero"/><path fill="#ffffff" d="M 199.003906 143.332031 C 199.003906 145.421875 200.417969 147.34375 202.734375 148.304688 C 205.21875 149.320312 205.21875 149.320312 205.21875 147.511719 C 205.21875 145.421875 203.804688 143.503906 201.488281 142.542969 C 199.003906 141.527344 199.003906 141.527344 199.003906 143.332031 Z M 199.003906 143.332031 " fill-opacity="1" fill-rule="nonzero"/><path fill="#ffffff" d="M 218.828125 142.710938 C 217.699219 144.859375 218.09375 147.171875 219.957031 149.148438 C 221.933594 151.296875 222.726562 150.789062 222.726562 147.285156 C 222.726562 145.761719 222.273438 144.6875 221.085938 143.332031 C 219.503906 141.582031 219.503906 141.582031 218.828125 142.710938 Z M 218.828125 142.710938 " fill-opacity="1" fill-rule="nonzero"/><path fill="#ffffff" d="M 163.820312 144.351562 C 162.296875 145.195312 162.238281 145.253906 163.144531 146.269531 C 164.441406 147.738281 166.984375 148.191406 169.355469 147.398438 C 171.726562 146.609375 171.785156 146.15625 169.863281 144.632812 C 168.113281 143.21875 166.023438 143.164062 163.820312 144.351562 Z M 163.820312 144.351562 " fill-opacity="1" fill-rule="nonzero"/><path fill="#ffffff" d="M 263.105469 145.421875 C 262.3125 146.15625 261.691406 147.171875 261.691406 147.625 C 261.691406 148.699219 263.441406 149.261719 265.308594 148.753906 C 266.71875 148.414062 269.597656 145.59375 269.597656 144.519531 C 269.597656 144.238281 268.46875 144.011719 267.058594 144.011719 C 265.082031 144.011719 264.121094 144.351562 263.105469 145.421875 Z M 263.105469 145.421875 " fill-opacity="1" fill-rule="nonzero"/><path fill="#ffffff" d="M 133.945312 144.972656 C 131.40625 145.648438 134.398438 149.035156 137.957031 149.488281 C 139.761719 149.714844 140.328125 149.601562 140.609375 148.8125 C 141.402344 146.777344 136.882812 144.125 133.945312 144.972656 Z M 133.945312 144.972656 " fill-opacity="1" fill-rule="nonzero"/><path fill="#ffffff" d="M 248.703125 144.972656 C 248.703125 146.664062 250.058594 149.769531 251.132812 150.503906 C 254.859375 153.101562 256.382812 149.882812 252.996094 146.496094 C 251.300781 144.800781 248.703125 143.898438 248.703125 144.972656 Z M 248.703125 144.972656 " fill-opacity="1" fill-rule="nonzero"/><path fill="#ffffff" d="M 99.042969 145.703125 C 98.367188 146.101562 98.421875 146.382812 99.328125 147.34375 C 100.796875 149.035156 104.015625 149.882812 105.992188 149.148438 C 107.347656 148.640625 107.460938 148.359375 106.949219 147.398438 C 106.613281 146.777344 105.878906 146.042969 105.257812 145.703125 C 103.957031 145.027344 100.175781 144.972656 99.042969 145.703125 Z M 99.042969 145.703125 " fill-opacity="1" fill-rule="nonzero"/><path fill="#ffffff" d="M 117.285156 146.496094 C 115.421875 148.078125 114.519531 150.5625 115.140625 152.480469 C 115.589844 153.949219 116.609375 153.894531 118.132812 152.3125 C 119.601562 150.730469 120.109375 148.699219 119.488281 146.609375 L 119.035156 145.027344 Z M 117.285156 146.496094 " fill-opacity="1" fill-rule="nonzero"/><path fill="#ffffff" d="M 227.863281 147.230469 C 226.453125 150.054688 222.273438 154.742188 221.257812 154.742188 C 220.804688 154.742188 220.296875 154.34375 220.070312 153.835938 C 219.730469 152.992188 219.617188 152.992188 218.941406 153.949219 C 218.546875 154.515625 218.207031 155.363281 218.207031 155.925781 C 218.207031 156.660156 217.527344 156.945312 215.269531 157.226562 C 213.632812 157.394531 211.203125 157.734375 209.847656 157.902344 C 206.289062 158.410156 204.144531 157.339844 202.84375 154.289062 C 201.546875 151.464844 200.980469 151.523438 201.488281 154.402344 C 202.167969 157.847656 204.03125 159.429688 210.019531 161.460938 C 217.132812 163.945312 218.714844 165.074219 220.691406 169.027344 C 222.613281 172.925781 223.234375 178.914062 222.214844 184.390625 C 221.425781 188.511719 220.296875 190.152344 216.851562 192.070312 C 215.4375 192.863281 213.011719 194.78125 211.542969 196.363281 C 208.550781 199.636719 206.007812 200.484375 202.394531 199.414062 C 200.078125 198.734375 195.730469 195.175781 194.542969 192.972656 C 194.035156 192.015625 193.132812 191.449219 191.605469 191.222656 C 185.449219 190.265625 179.917969 186.761719 177.320312 182.246094 C 176.527344 180.945312 175.453125 177.953125 174.832031 175.636719 C 174.101562 172.699219 172.96875 170.273438 171.164062 167.5625 C 169.75 165.472656 168.226562 162.703125 167.886719 161.347656 C 166.871094 157.789062 166.417969 157.675781 165.855469 161.007812 C 165.402344 163.945312 165.402344 164.058594 168.28125 168.40625 C 170.257812 171.34375 171.558594 174.113281 172.179688 176.652344 C 174.890625 187.382812 174.832031 187.328125 187.992188 193.484375 C 199.289062 198.734375 206.007812 210.367188 206.855469 225.898438 L 207.195312 232.957031 L 208.152344 231.152344 C 208.71875 230.191406 210.582031 228.160156 212.390625 226.632812 C 214.195312 225.164062 215.835938 223.695312 216.003906 223.472656 C 216.171875 223.1875 216.511719 220.929688 216.683594 218.445312 C 217.019531 214.546875 216.90625 213.644531 215.890625 211.667969 C 215.269531 210.425781 214.59375 208.054688 214.421875 206.414062 C 214.027344 202.519531 215.664062 198.847656 220.464844 193.144531 C 224.363281 188.457031 226.058594 185.292969 226.113281 182.640625 C 226.113281 181.679688 225.433594 177.726562 224.644531 173.886719 C 222.667969 164.398438 222.949219 161.347656 226.394531 155.023438 C 228.597656 150.902344 230.347656 145.140625 229.332031 145.140625 C 229.105469 145.140625 228.484375 146.101562 227.863281 147.230469 Z M 227.863281 147.230469 " fill-opacity="1" fill-rule="nonzero"/><path fill="#ffffff" d="M 186.015625 147.285156 C 186.015625 148.699219 187.539062 150.675781 189.40625 151.636719 C 191.664062 152.820312 192.792969 152.707031 192.792969 151.296875 C 192.792969 149.433594 191.71875 147.90625 189.6875 147.058594 C 187.089844 145.988281 186.015625 146.042969 186.015625 147.285156 Z M 186.015625 147.285156 " fill-opacity="1" fill-rule="nonzero"/><path fill="#ffffff" d="M 209.453125 148.132812 C 209 150.390625 209.734375 152.367188 211.597656 154.0625 C 213.011719 155.417969 213.011719 155.417969 213.632812 154.289062 C 214.988281 151.804688 213.6875 148.359375 210.863281 146.835938 C 209.960938 146.328125 209.734375 146.496094 209.453125 148.132812 Z M 209.453125 148.132812 " fill-opacity="1" fill-rule="nonzero"/><path fill="#ffffff" d="M 296.367188 148.980469 C 294.449219 149.148438 292.414062 150.957031 292.074219 152.765625 C 291.679688 155.417969 297.722656 153.722656 299.25 150.789062 C 299.984375 149.375 299.984375 149.207031 299.078125 149.035156 C 298.570312 148.867188 297.328125 148.867188 296.367188 148.980469 Z M 296.367188 148.980469 " fill-opacity="1" fill-rule="nonzero"/><path fill="#ffffff" d="M 125.925781 150.5625 C 123.835938 151.972656 123.78125 152.144531 124.742188 152.820312 C 126.433594 154.0625 129.597656 153.78125 131.515625 152.257812 C 133.492188 150.617188 133.042969 149.769531 130.050781 149.320312 C 128.582031 149.09375 127.621094 149.375 125.925781 150.5625 Z M 125.925781 150.5625 " fill-opacity="1" fill-rule="nonzero"/><path fill="#ffffff" d="M 157.214844 150.730469 C 156.367188 152.425781 156.535156 156.039062 157.609375 157.507812 L 158.511719 158.863281 L 159.585938 157.566406 C 160.828125 156.039062 160.941406 152.59375 159.699219 150.902344 C 158.625 149.375 158.003906 149.320312 157.214844 150.730469 Z M 157.214844 150.730469 " fill-opacity="1" fill-rule="nonzero"/><path fill="#ffffff" d="M 177.882812 151.296875 C 174.777344 154.742188 175.792969 162.082031 179.972656 165.980469 L 181.441406 167.277344 L 180.59375 164.566406 C 179.972656 162.648438 179.804688 160.050781 179.917969 156.210938 C 180.085938 150.335938 179.691406 149.320312 177.882812 151.296875 Z M 177.882812 151.296875 " fill-opacity="1" fill-rule="nonzero"/><path fill="#ffffff" d="M 279.820312 150.957031 C 277.789062 151.972656 277.789062 152.878906 279.707031 153.835938 C 281.742188 154.910156 284.113281 154.96875 285.863281 154.007812 C 287.105469 153.273438 287.105469 153.214844 286.144531 152.367188 C 285.1875 151.464844 282.417969 150.222656 281.570312 150.222656 C 281.34375 150.222656 280.554688 150.5625 279.820312 150.957031 Z M 279.820312 150.957031 " fill-opacity="1" fill-rule="nonzero"/><path fill="#ffffff" d="M 236.277344 151.015625 C 236.277344 152.480469 238.140625 155.363281 239.609375 156.097656 C 243.507812 158.128906 245.03125 156.324219 242.09375 153.046875 C 240.683594 151.464844 236.277344 149.941406 236.277344 151.015625 Z M 236.277344 151.015625 " fill-opacity="1" fill-rule="nonzero"/><path fill="#ffffff" d="M 99.042969 153.894531 C 99.042969 155.644531 101.640625 158.523438 103.730469 159.03125 C 105.03125 159.316406 105.257812 159.203125 105.257812 158.1875 C 105.257812 156.265625 103.789062 153.894531 102.152344 153.160156 C 99.890625 152.144531 99.042969 152.3125 99.042969 153.894531 Z M 99.042969 153.894531 " fill-opacity="1" fill-rule="nonzero"/><path fill="#ffffff" d="M 183.757812 154.34375 C 183.757812 156.546875 184.941406 158.410156 187.144531 159.542969 C 189.347656 160.671875 189.40625 160.671875 189.40625 158.355469 C 189.40625 156.773438 188.953125 155.871094 187.484375 154.402344 C 185 151.917969 183.757812 151.859375 183.757812 154.34375 Z M 183.757812 154.34375 " fill-opacity="1" fill-rule="nonzero"/><path fill="#ffffff" d="M 105.820312 153.160156 C 105.820312 155.8125 109.324219 159.257812 112.035156 159.257812 C 113.105469 159.257812 113.21875 159.03125 112.878906 157.675781 C 112.371094 155.476562 110.28125 153.613281 107.910156 153.214844 C 106.78125 153.046875 105.820312 153.046875 105.820312 153.160156 Z M 105.820312 153.160156 " fill-opacity="1" fill-rule="nonzero"/><path fill="#ffffff" d="M 299.023438 154.121094 C 298.34375 154.570312 298.570312 155.023438 300.207031 156.660156 C 301.902344 158.355469 302.636719 158.695312 304.558594 158.695312 C 307.378906 158.695312 307.4375 158.015625 304.953125 155.53125 C 302.976562 153.554688 300.714844 153.046875 299.023438 154.121094 Z M 299.023438 154.121094 " fill-opacity="1" fill-rule="nonzero"/><path fill="#ffffff" d="M 120.222656 155.023438 C 120.054688 155.476562 119.828125 156.265625 119.65625 156.773438 C 119.320312 157.902344 120.617188 161.007812 122.085938 162.253906 C 123.214844 163.269531 123.273438 163.269531 123.835938 162.140625 C 125.078125 159.824219 124.175781 156.546875 121.804688 155.023438 C 120.617188 154.234375 120.449219 154.234375 120.222656 155.023438 Z M 120.222656 155.023438 " fill-opacity="1" fill-rule="nonzero"/><path fill="#ffffff" d="M 264.234375 154.96875 C 262.257812 155.8125 261.410156 156.773438 260.957031 158.523438 C 260.730469 159.65625 260.902344 159.824219 262.484375 159.824219 C 264.628906 159.824219 266.492188 158.636719 267.621094 156.433594 C 268.074219 155.53125 268.46875 154.683594 268.46875 154.457031 C 268.46875 153.949219 265.984375 154.234375 264.234375 154.96875 Z M 264.234375 154.96875 " fill-opacity="1" fill-rule="nonzero"/><path fill="#ffffff" d="M 86.054688 157 C 86.054688 158.636719 87.523438 161.292969 88.992188 162.308594 C 91.023438 163.71875 91.703125 163.4375 91.703125 161.179688 C 91.703125 159.710938 91.25 158.75 90.066406 157.507812 C 88.089844 155.589844 86.054688 155.304688 86.054688 157 Z M 86.054688 157 " fill-opacity="1" fill-rule="nonzero"/><path fill="#ffffff" d="M 251.019531 156.605469 C 249.324219 158.695312 249.890625 163.832031 251.867188 164.566406 C 253.277344 165.132812 254.578125 161.292969 253.785156 158.976562 C 252.996094 156.492188 251.921875 155.589844 251.019531 156.605469 Z M 251.019531 156.605469 " fill-opacity="1" fill-rule="nonzero"/><path fill="#ffffff" d="M 128.46875 156.945312 C 126.207031 158.355469 130.839844 161.347656 134.285156 160.726562 C 136.714844 160.277344 136.882812 159.203125 134.847656 157.621094 C 133.269531 156.378906 129.878906 156.039062 128.46875 156.945312 Z M 128.46875 156.945312 " fill-opacity="1" fill-rule="nonzero"/><path fill="#ffffff" d="M 275.527344 158.074219 C 274.34375 160.386719 274.457031 162.761719 275.867188 164.566406 C 277.28125 166.375 277.84375 166.09375 278.636719 163.210938 C 279.085938 161.519531 279.03125 160.558594 278.410156 159.089844 C 277.28125 156.378906 276.546875 156.152344 275.527344 158.074219 Z M 275.527344 158.074219 " fill-opacity="1" fill-rule="nonzero"/><path fill="#ffffff" d="M 195.503906 159.089844 C 193.867188 160.898438 193.246094 162.875 193.695312 164.738281 C 194.148438 166.488281 195.222656 166.375 196.972656 164.285156 C 198.441406 162.535156 198.722656 161.179688 198.101562 158.808594 C 197.648438 157.167969 197.253906 157.226562 195.503906 159.089844 Z M 195.503906 159.089844 " fill-opacity="1" fill-rule="nonzero"/><path fill="#ffffff" d="M 93.960938 159.203125 C 93.960938 159.542969 94.640625 160.613281 95.542969 161.519531 C 96.617188 162.816406 97.746094 163.382812 99.496094 163.609375 C 101.585938 163.890625 101.867188 163.777344 101.867188 162.761719 C 101.867188 160.613281 100.0625 159.144531 96.898438 158.808594 C 94.921875 158.636719 93.960938 158.75 93.960938 159.203125 Z M 93.960938 159.203125 " fill-opacity="1" fill-rule="nonzero"/><path fill="#ffffff" d="M 235.429688 159.824219 C 234.359375 161.519531 236.503906 164.964844 239.554688 166.542969 C 240.738281 167.164062 240.796875 167.109375 240.796875 164.964844 C 240.796875 163.210938 240.402344 162.363281 239.046875 161.007812 C 237.296875 159.203125 236.050781 158.808594 235.429688 159.824219 Z M 235.429688 159.824219 " fill-opacity="1" fill-rule="nonzero"/><path fill="#ffffff" d="M 296.707031 161.066406 C 296.707031 163.042969 298.628906 165.246094 301 166.035156 C 302.070312 166.429688 303.144531 166.601562 303.316406 166.429688 C 303.824219 165.921875 302.355469 162.308594 301.28125 161.292969 C 300.773438 160.785156 299.472656 160.21875 298.515625 160.050781 C 296.875 159.710938 296.707031 159.824219 296.707031 161.066406 Z M 296.707031 161.066406 " fill-opacity="1" fill-rule="nonzero"/><path fill="#ffffff" d="M 109.4375 162.082031 C 108.191406 162.589844 105.257812 165.753906 105.257812 166.65625 C 105.257812 167.449219 108.53125 167.277344 110.28125 166.375 C 111.128906 165.921875 112.316406 164.851562 112.824219 164.058594 C 113.839844 162.535156 113.898438 162.648438 111.355469 161.855469 C 110.960938 161.742188 110.113281 161.855469 109.4375 162.082031 Z M 109.4375 162.082031 " fill-opacity="1" fill-rule="nonzero"/><path fill="#ffffff" d="M 182.910156 164.339844 C 182.402344 165.1875 185.5625 168.238281 187.484375 168.804688 C 189.96875 169.480469 190.929688 168.804688 190.082031 166.882812 C 189.066406 164.679688 183.871094 162.816406 182.910156 164.339844 Z M 182.910156 164.339844 " fill-opacity="1" fill-rule="nonzero"/><path fill="#ffffff" d="M 295.070312 166.542969 C 294.222656 168.125 294.277344 170.328125 295.296875 172.191406 C 296.59375 174.789062 297.722656 174.789062 298.457031 172.304688 C 299.25 169.707031 298.628906 167.335938 296.875 166.207031 C 295.804688 165.472656 295.578125 165.527344 295.070312 166.542969 Z M 295.070312 166.542969 " fill-opacity="1" fill-rule="nonzero"/><path fill="#ffffff" d="M 85.601562 167.277344 C 83.964844 168.125 84.246094 168.804688 86.734375 170.101562 C 88.484375 171.003906 89.160156 171.0625 91.082031 170.554688 C 93.734375 169.875 93.90625 169.480469 92.097656 167.84375 C 90.628906 166.488281 87.804688 166.261719 85.601562 167.277344 Z M 85.601562 167.277344 " fill-opacity="1" fill-rule="nonzero"/><path fill="#ffffff" d="M 198.890625 168.070312 C 197.988281 168.519531 197.3125 169.085938 197.3125 169.3125 C 197.3125 169.988281 200.472656 171.683594 201.828125 171.683594 C 203.296875 171.683594 206.347656 170.160156 206.347656 169.425781 C 206.347656 168.632812 203.242188 167.164062 201.714844 167.164062 C 200.980469 167.222656 199.738281 167.617188 198.890625 168.070312 Z M 198.890625 168.070312 " fill-opacity="1" fill-rule="nonzero"/><path fill="#ffffff" d="M 245.484375 168.296875 C 243.5625 169.425781 242.886719 170.441406 242.265625 172.925781 C 241.925781 174.335938 242.039062 174.507812 243.28125 174.507812 C 245.539062 174.507812 247.574219 172.304688 247.96875 169.539062 C 248.308594 166.882812 248.027344 166.714844 245.484375 168.296875 Z M 245.484375 168.296875 " fill-opacity="1" fill-rule="nonzero"/><path fill="#ffffff" d="M 284.847656 169.59375 C 284.847656 171.964844 286.484375 174.167969 288.855469 175.015625 L 290.664062 175.636719 L 290.324219 173.265625 C 289.988281 170.78125 288.292969 168.691406 286.144531 168.011719 C 284.960938 167.671875 284.847656 167.84375 284.847656 169.59375 Z M 284.847656 169.59375 " fill-opacity="1" fill-rule="nonzero"/><path fill="#ffffff" d="M 210.695312 168.917969 C 209.679688 169.480469 209.679688 169.59375 210.921875 170.894531 C 211.882812 171.964844 212.785156 172.25 214.761719 172.25 C 218.601562 172.25 219.28125 171.570312 217.472656 169.761719 C 215.890625 168.183594 212.671875 167.785156 210.695312 168.917969 Z M 210.695312 168.917969 " fill-opacity="1" fill-rule="nonzero"/><path fill="#ffffff" d="M 235.207031 169.820312 C 234.300781 171.515625 234.414062 174.28125 235.488281 176.257812 C 236.503906 178.234375 237.40625 178.179688 238.425781 175.976562 C 239.382812 174.113281 238.988281 172.25 237.183594 170.214844 C 235.882812 168.632812 235.882812 168.632812 235.207031 169.820312 Z M 235.207031 169.820312 " fill-opacity="1" fill-rule="nonzero"/><path fill="#ffffff" d="M 141.964844 171.230469 L 138.292969 173.039062 L 140.554688 173.265625 C 144.449219 173.605469 156.875 176.257812 157.722656 176.9375 C 158.34375 177.445312 158.230469 177.726562 156.929688 178.234375 C 155.40625 178.855469 155.464844 178.855469 158.34375 179.25 C 161.84375 179.703125 163.3125 180.378906 164.667969 182.074219 C 165.628906 183.203125 165.628906 183.148438 164.835938 180.492188 C 163.878906 177.046875 160.546875 173.546875 156.085938 171.175781 C 151.453125 168.691406 147.046875 168.746094 141.964844 171.230469 Z M 141.964844 171.230469 " fill-opacity="1" fill-rule="nonzero"/><path fill="#ffffff" d="M 253.84375 172.925781 C 252.9375 175.296875 250.171875 177.105469 245.765625 178.234375 L 241.644531 179.25 L 244.015625 179.757812 C 248.984375 180.890625 253.390625 178.515625 254.351562 174.226562 C 254.914062 171.628906 254.632812 170.894531 253.84375 172.925781 Z M 253.84375 172.925781 " fill-opacity="1" fill-rule="nonzero"/><path fill="#ffffff" d="M 192.226562 173.714844 C 192.226562 173.886719 192.625 174.902344 193.132812 175.917969 C 194.429688 178.628906 199.570312 180.890625 199.570312 178.742188 C 199.570312 176.9375 197.875 174.621094 196.125 174 C 194.148438 173.320312 192.226562 173.152344 192.226562 173.714844 Z M 192.226562 173.714844 " fill-opacity="1" fill-rule="nonzero"/><path fill="#ffffff" d="M 209.847656 175.296875 L 208.492188 176.03125 L 210.355469 177.558594 C 211.9375 178.855469 212.617188 179.082031 214.421875 178.855469 C 217.699219 178.402344 218.261719 177.558594 216.34375 175.863281 C 214.59375 174.335938 211.9375 174.113281 209.847656 175.296875 Z M 209.847656 175.296875 " fill-opacity="1" fill-rule="nonzero"/><path fill="#ffffff" d="M 136.035156 177.046875 C 134.511719 178.515625 134.226562 180.71875 135.1875 183.261719 C 135.695312 184.558594 135.921875 184.671875 136.65625 184.050781 C 138.632812 182.414062 139.648438 178.800781 138.804688 176.539062 C 138.292969 175.296875 137.617188 175.410156 136.035156 177.046875 Z M 136.035156 177.046875 " fill-opacity="1" fill-rule="nonzero"/><path fill="#ffffff" d="M 146.144531 177.953125 C 144.222656 178.515625 142.8125 180.210938 142.191406 182.753906 C 141.796875 184.222656 141.851562 184.277344 143.714844 183.9375 C 145.863281 183.488281 148.742188 180.71875 148.742188 179.023438 C 148.742188 177.613281 148.234375 177.386719 146.144531 177.953125 Z M 146.144531 177.953125 " fill-opacity="1" fill-rule="nonzero"/><path fill="#ffffff" d="M 201.828125 178.628906 C 201.828125 180.605469 205.5 183.542969 208.042969 183.542969 C 209.734375 183.542969 209.453125 181.511719 207.53125 179.535156 C 206.289062 178.347656 205.332031 177.894531 203.863281 177.894531 C 202.5625 177.894531 201.828125 178.179688 201.828125 178.628906 Z M 201.828125 178.628906 " fill-opacity="1" fill-rule="nonzero"/><path fill="#ffffff" d="M 272.703125 179.589844 C 272.195312 182.019531 272.816406 184.332031 274.457031 185.859375 C 275.640625 186.988281 275.980469 187.042969 276.375 186.367188 C 277.84375 184.109375 276.601562 179.757812 274.117188 178.460938 C 273.214844 178.007812 273.042969 178.179688 272.703125 179.589844 Z M 272.703125 179.589844 " fill-opacity="1" fill-rule="nonzero"/><path fill="#ffffff" d="M 287.105469 181.058594 C 287.105469 183.261719 287.386719 183.9375 288.855469 185.292969 C 289.816406 186.199219 290.832031 186.933594 291.117188 186.933594 C 291.398438 186.933594 291.625 185.6875 291.625 184.164062 C 291.625 181.734375 291.398438 181.171875 289.875 179.929688 C 288.914062 179.136719 287.898438 178.460938 287.613281 178.460938 C 287.332031 178.460938 287.105469 179.648438 287.105469 181.058594 Z M 287.105469 181.058594 " fill-opacity="1" fill-rule="nonzero"/><path fill="#ffffff" d="M 98.480469 179.984375 C 96.21875 180.832031 95.089844 182.582031 95.089844 185.351562 C 95.089844 188.511719 95.65625 188.738281 97.972656 186.421875 C 99.328125 185.066406 99.609375 184.277344 99.609375 182.1875 C 99.609375 180.777344 99.550781 179.589844 99.496094 179.648438 C 99.382812 179.648438 98.929688 179.816406 98.480469 179.984375 Z M 98.480469 179.984375 " fill-opacity="1" fill-rule="nonzero"/><path fill="#ffffff" d="M 282.136719 180.71875 C 280.328125 182.695312 279.59375 185.292969 280.328125 187.269531 L 280.949219 188.910156 L 282.925781 186.820312 C 284.960938 184.558594 285.300781 182.980469 284.054688 180.777344 L 283.324219 179.476562 Z M 282.136719 180.71875 " fill-opacity="1" fill-rule="nonzero"/><path fill="#ffffff" d="M 150.152344 181.566406 C 149.082031 182.582031 148.742188 183.542969 148.742188 185.519531 C 148.742188 188.398438 149.53125 188.796875 151.453125 186.761719 C 153.824219 184.277344 154.390625 180.15625 152.355469 180.15625 C 151.90625 180.15625 150.886719 180.777344 150.152344 181.566406 Z M 150.152344 181.566406 " fill-opacity="1" fill-rule="nonzero"/><path fill="#ffffff" d="M 263.160156 182.074219 C 262.652344 183.148438 262.257812 184.390625 262.257812 184.957031 C 262.257812 185.914062 263.78125 189.191406 264.234375 189.191406 C 264.910156 189.191406 266.773438 185.40625 266.773438 184.109375 C 266.773438 182.640625 265.363281 180.15625 264.574219 180.15625 C 264.289062 180.15625 263.667969 181 263.160156 182.074219 Z M 263.160156 182.074219 " fill-opacity="1" fill-rule="nonzero"/><path fill="#ffffff" d="M 102.09375 183.261719 C 100.90625 185.125 101.417969 188.003906 103.335938 189.8125 C 104.523438 190.941406 104.859375 190.996094 105.257812 190.320312 C 106.160156 188.910156 105.878906 185.632812 104.691406 183.65625 C 104.070312 182.695312 103.449219 181.847656 103.28125 181.847656 C 103.167969 181.847656 102.601562 182.46875 102.09375 183.261719 Z M 102.09375 183.261719 " fill-opacity="1" fill-rule="nonzero"/><path fill="#ffffff" d="M 198.441406 183.542969 C 198.441406 185.179688 201.265625 188.003906 203.410156 188.398438 C 205.046875 188.738281 205.21875 188.625 205.21875 187.382812 C 205.21875 185.351562 203.75 183.65625 201.378906 182.980469 C 198.554688 182.246094 198.441406 182.246094 198.441406 183.542969 Z M 198.441406 183.542969 " fill-opacity="1" fill-rule="nonzero"/><path fill="#ffffff" d="M 109.886719 184.84375 C 108.589844 186.253906 108.191406 189.867188 109.210938 191.449219 C 109.605469 192.128906 109.886719 192.070312 110.960938 191.167969 C 112.597656 189.640625 113.332031 187.609375 112.878906 185.40625 C 112.484375 183.203125 111.582031 183.035156 109.886719 184.84375 Z M 109.886719 184.84375 " fill-opacity="1" fill-rule="nonzero"/><path fill="#ffffff" d="M 270.726562 186.875 C 269.769531 188.738281 270.050781 191.730469 271.40625 193.425781 L 272.59375 194.953125 L 273.328125 193.652344 C 274.34375 191.789062 274.285156 188.570312 273.214844 187.042969 C 272.140625 185.519531 271.519531 185.464844 270.726562 186.875 Z M 270.726562 186.875 " fill-opacity="1" fill-rule="nonzero"/><path fill="#ffffff" d="M 210.1875 186.761719 C 208.832031 187.101562 208.945312 187.835938 210.527344 189.472656 C 212.105469 191.054688 214.253906 191.730469 216.230469 191.222656 C 217.472656 190.886719 217.527344 190.714844 216.964844 189.417969 C 215.890625 187.101562 213.066406 185.972656 210.1875 186.761719 Z M 210.1875 186.761719 " fill-opacity="1" fill-rule="nonzero"/><path fill="#ffffff" d="M 256.667969 188.398438 C 256.042969 190.714844 256.777344 193.371094 258.53125 194.78125 C 259.375 195.515625 259.601562 195.515625 260.054688 194.78125 C 260.789062 193.597656 260.675781 189.53125 259.886719 188.570312 C 259.488281 188.117188 258.699219 187.382812 258.191406 186.988281 C 257.34375 186.367188 257.175781 186.535156 256.667969 188.398438 Z M 256.667969 188.398438 " fill-opacity="1" fill-rule="nonzero"/><path fill="#ffffff" d="M 141.683594 188.230469 C 140.667969 189.078125 140.101562 190.265625 139.875 191.84375 L 139.535156 194.273438 L 141.34375 193.652344 C 143.601562 192.863281 145.355469 190.601562 145.355469 188.570312 C 145.355469 186.535156 143.828125 186.367188 141.683594 188.230469 Z M 141.683594 188.230469 " fill-opacity="1" fill-rule="nonzero"/><path fill="#ffffff" d="M 155.632812 187.664062 C 153.824219 189.8125 155.179688 195.121094 157.550781 195.121094 C 159.078125 195.121094 159.359375 191.222656 158.003906 188.738281 C 156.929688 186.761719 156.535156 186.59375 155.632812 187.664062 Z M 155.632812 187.664062 " fill-opacity="1" fill-rule="nonzero"/><path fill="#ffffff" d="M 134.960938 188.398438 C 133.382812 189.925781 132.929688 191.730469 133.550781 193.933594 C 134.285156 196.53125 135.132812 196.984375 136.429688 195.402344 C 137.617188 193.933594 137.730469 190.660156 136.65625 188.738281 C 135.980469 187.441406 135.867188 187.441406 134.960938 188.398438 Z M 134.960938 188.398438 " fill-opacity="1" fill-rule="nonzero"/><path fill="#ffffff" d="M 162.917969 189.53125 C 161.675781 191.109375 161.335938 194.5 162.296875 195.96875 C 163.144531 197.210938 166.25 193.707031 166.25 191.507812 C 166.25 187.835938 164.894531 187.042969 162.917969 189.53125 Z M 162.917969 189.53125 " fill-opacity="1" fill-rule="nonzero"/><path fill="#ffffff" d="M 245.316406 189.867188 C 227.523438 193.597656 223.175781 195.910156 220.746094 202.800781 C 219.394531 206.585938 218.320312 212.0625 217.867188 217.710938 C 217.527344 222.230469 217.585938 222.738281 218.320312 222.058594 C 218.941406 221.609375 219.28125 219.800781 219.503906 216.015625 C 220.015625 207.09375 223.347656 201.671875 227.410156 203.195312 C 228.9375 203.761719 229.21875 203.703125 230.011719 202.574219 C 231.367188 200.542969 234.585938 197.773438 236.730469 196.757812 C 239.667969 195.402344 242.378906 195.234375 246.445312 196.136719 L 250.113281 196.984375 L 247.96875 195.234375 C 246.839844 194.21875 245.878906 193.257812 245.878906 193.03125 C 245.878906 192.863281 246.953125 191.902344 248.25 190.941406 C 250.339844 189.359375 250.453125 189.191406 249.210938 189.246094 C 248.476562 189.304688 246.726562 189.53125 245.316406 189.867188 Z M 245.316406 189.867188 " fill-opacity="1" fill-rule="nonzero"/><path fill="#ffffff" d="M 126.660156 191.335938 C 125.25 192.015625 124.515625 192.917969 123.894531 194.667969 C 122.933594 197.550781 123.273438 198.058594 125.644531 197.097656 C 128.242188 195.96875 130.613281 191.621094 129.089844 190.660156 C 128.808594 190.488281 127.734375 190.828125 126.660156 191.335938 Z M 126.660156 191.335938 " fill-opacity="1" fill-rule="nonzero"/><path fill="#ffffff" d="M 202.28125 192.578125 C 200.699219 193.992188 200.53125 194.328125 201.265625 194.839844 C 202.902344 195.910156 206.175781 195.460938 207.871094 193.992188 C 209.398438 192.636719 209.453125 192.578125 208.378906 191.730469 C 206.628906 190.375 204.3125 190.714844 202.28125 192.578125 Z M 202.28125 192.578125 " fill-opacity="1" fill-rule="nonzero"/><path fill="#ffffff" d="M 277.054688 192.523438 C 275.304688 194.105469 274.398438 196.195312 274.792969 198 C 275.078125 199.636719 276.261719 199.527344 278.070312 197.773438 C 279.367188 196.417969 279.765625 195.574219 279.765625 193.765625 C 279.765625 192.523438 279.539062 191.394531 279.257812 191.222656 C 278.972656 191.054688 277.957031 191.621094 277.054688 192.523438 Z M 277.054688 192.523438 " fill-opacity="1" fill-rule="nonzero"/><path fill="#ffffff" d="M 147.894531 192.183594 C 147.386719 193.371094 148.6875 196.984375 151.453125 202.40625 C 153.882812 207.09375 156.367188 209.070312 161.957031 210.707031 C 167.265625 212.289062 172.347656 215.621094 177.714844 221.097656 C 185.167969 228.722656 186.355469 232.167969 185.339844 243.746094 C 184.773438 250.296875 184.828125 251.59375 185.675781 255.039062 C 188.21875 265.207031 196.800781 275.144531 207.871094 280.792969 C 210.46875 282.09375 212.671875 282.996094 212.898438 282.828125 C 213.066406 282.65625 212.730469 281.527344 212.105469 280.285156 C 211.203125 278.589844 210.46875 277.96875 208.492188 277.40625 C 202.054688 275.484375 194.203125 267.125 192.738281 260.632812 C 192.113281 257.75 192.113281 257.355469 193.1875 255.945312 C 193.980469 254.816406 194.9375 254.363281 196.464844 254.25 C 198.328125 254.082031 199.289062 254.53125 203.242188 257.1875 C 205.78125 258.9375 208.042969 260.347656 208.210938 260.347656 C 208.378906 260.347656 208.378906 259.277344 208.152344 257.921875 C 207.929688 256 207.195312 254.816406 204.3125 251.707031 C 200.023438 247.078125 198.15625 243.40625 196.859375 237.308594 C 196.070312 233.296875 196.011719 232.113281 196.691406 227.199219 C 198.328125 214.773438 198.15625 212.007812 195.503906 208.675781 C 193.980469 206.699219 190.082031 204.890625 184.320312 203.308594 C 181.667969 202.632812 178.5625 201.558594 177.433594 200.992188 C 176.246094 200.371094 175.171875 199.921875 175.003906 199.921875 C 174.832031 199.921875 174.722656 202.011719 174.722656 204.496094 L 174.722656 209.125 L 170.542969 208.789062 C 163.480469 208.28125 159.078125 205.679688 158.003906 201.390625 C 157.722656 200.261719 157.496094 200.035156 157.15625 200.597656 C 156.707031 201.332031 156.707031 201.617188 157.496094 204.269531 C 158.003906 206.078125 157.042969 205.90625 154.671875 203.816406 C 152.355469 201.726562 151.339844 200.035156 149.589844 194.839844 C 148.628906 192.070312 148.175781 191.394531 147.894531 192.183594 Z M 192.960938 210.480469 C 195.222656 212.570312 195.445312 218.386719 193.359375 220.929688 C 192.511719 222.003906 192.171875 222.117188 190.929688 221.550781 C 189.292969 220.816406 186.75 216.808594 186.242188 214.265625 C 185.789062 211.78125 188.386719 208.730469 190.476562 209.238281 C 191.269531 209.464844 192.398438 210.03125 192.960938 210.480469 Z M 192.960938 210.480469 " fill-opacity="1" fill-rule="nonzero"/><path fill="#ffffff" d="M 188.613281 210.933594 C 187.144531 212.402344 187.089844 213.871094 188.332031 216.582031 C 189.742188 219.519531 191.492188 221.097656 192.566406 220.195312 C 194.429688 218.613281 193.753906 212.515625 191.492188 210.933594 C 189.96875 209.859375 189.6875 209.859375 188.613281 210.933594 Z M 188.613281 210.933594 " fill-opacity="1" fill-rule="nonzero"/><path fill="#ffffff" d="M 268.242188 196.871094 C 267.507812 198.792969 267.90625 202.066406 269.089844 203.535156 C 270.671875 205.511719 271.179688 205.398438 271.6875 202.859375 C 272.195312 200.035156 271.972656 198.734375 270.558594 197.210938 C 269.203125 195.742188 268.695312 195.683594 268.242188 196.871094 Z M 268.242188 196.871094 " fill-opacity="1" fill-rule="nonzero"/><path fill="#ffffff" d="M 138.292969 198.339844 C 136.714844 199.75 135.640625 203.875 136.824219 203.875 C 139.199219 203.875 142.53125 200.429688 142.53125 197.945312 C 142.53125 196.644531 139.988281 196.871094 138.292969 198.339844 Z M 138.292969 198.339844 " fill-opacity="1" fill-rule="nonzero"/><path fill="#ffffff" d="M 258.078125 199.1875 C 258.753906 202.347656 264.515625 206.191406 264.515625 203.535156 C 264.515625 200.65625 261.636719 197.660156 258.8125 197.660156 C 257.910156 197.660156 257.796875 197.945312 258.078125 199.1875 Z M 258.078125 199.1875 " fill-opacity="1" fill-rule="nonzero"/><path fill="#ffffff" d="M 239.382812 199.976562 C 238.761719 201.839844 239.554688 204.722656 241.023438 206.078125 C 242.828125 207.769531 243.621094 207.207031 243.621094 204.101562 C 243.621094 202.179688 243.28125 201.21875 242.207031 200.203125 C 240.515625 198.507812 239.835938 198.453125 239.382812 199.976562 Z M 239.382812 199.976562 " fill-opacity="1" fill-rule="nonzero"/><path fill="#ffffff" d="M 234.074219 200.148438 C 232.496094 202.011719 232.945312 208.390625 234.640625 208.390625 C 235.601562 208.390625 237.070312 205.398438 237.070312 203.480469 C 237.070312 201.050781 235.148438 198.847656 234.074219 200.148438 Z M 234.074219 200.148438 " fill-opacity="1" fill-rule="nonzero"/><path fill="#ffffff" d="M 164.328125 200.429688 C 164.214844 200.597656 164.441406 201.558594 164.835938 202.574219 C 165.683594 204.550781 167.492188 205.964844 169.636719 206.246094 C 171.558594 206.472656 171.839844 204.496094 170.089844 202.519531 C 168.847656 201.050781 164.835938 199.582031 164.328125 200.429688 Z M 164.328125 200.429688 " fill-opacity="1" fill-rule="nonzero"/><path fill="#ffffff" d="M 126.320312 201.164062 C 124.683594 201.617188 122.199219 203.929688 122.199219 205.058594 C 122.199219 205.34375 123.441406 205.570312 124.910156 205.570312 C 127.167969 205.570312 127.902344 205.285156 129.203125 203.929688 C 131.515625 201.503906 130.105469 200.148438 126.320312 201.164062 Z M 126.320312 201.164062 " fill-opacity="1" fill-rule="nonzero"/><path fill="#ffffff" d="M 253.617188 200.882812 C 253.390625 201.050781 253.222656 202.125 253.222656 203.195312 C 253.222656 204.664062 253.730469 205.625 255.3125 207.148438 L 257.34375 209.238281 L 257.910156 207.65625 C 258.585938 205.625 258.023438 203.535156 256.328125 201.839844 C 254.914062 200.429688 254.238281 200.203125 253.617188 200.882812 Z M 253.617188 200.882812 " fill-opacity="1" fill-rule="nonzero"/><path fill="#ffffff" d="M 248.703125 203.367188 C 246.5 206.359375 247.234375 212.007812 249.550781 210.085938 C 252.035156 208.054688 252.65625 203.816406 250.679688 202.179688 C 250.113281 201.726562 249.664062 201.953125 248.703125 203.367188 Z M 248.703125 203.367188 " fill-opacity="1" fill-rule="nonzero"/><path fill="#ffffff" d="M 143.660156 204.4375 C 142.023438 205.851562 141.796875 206.191406 142.53125 206.699219 C 144.167969 207.769531 147.445312 207.320312 149.308594 205.738281 C 151 204.324219 151.058594 204.214844 150.097656 203.480469 C 148.347656 202.238281 145.75 202.574219 143.660156 204.4375 Z M 143.660156 204.4375 " fill-opacity="1" fill-rule="nonzero"/><path fill="#ffffff" d="M 223.628906 205.570312 C 222.835938 206.527344 221.933594 208.222656 221.59375 209.410156 C 220.859375 212.0625 220.183594 219.6875 220.691406 219.6875 C 222.046875 219.6875 228.203125 206.359375 227.582031 204.722656 C 227.074219 203.367188 225.210938 203.761719 223.628906 205.570312 Z M 223.628906 205.570312 " fill-opacity="1" fill-rule="nonzero"/><path fill="#ffffff" d="M 129.03125 206.527344 C 126.433594 209.011719 126.207031 213.8125 128.75 212.457031 C 130.726562 211.441406 131.914062 209.632812 132.195312 207.320312 C 132.589844 204.496094 131.515625 204.214844 129.03125 206.527344 Z M 129.03125 206.527344 " fill-opacity="1" fill-rule="nonzero"/><path fill="#ffffff" d="M 265.363281 207.035156 C 265.816406 209.691406 267 211.441406 268.808594 212.234375 C 270.726562 213.136719 270.726562 213.191406 270.726562 210.707031 C 270.726562 208.054688 269.035156 205.851562 266.550781 205.285156 C 264.96875 204.949219 264.96875 204.949219 265.363281 207.035156 Z M 265.363281 207.035156 " fill-opacity="1" fill-rule="nonzero"/><path fill="#ffffff" d="M 150.042969 208.503906 C 148.066406 209.011719 145.917969 211.328125 145.917969 212.964844 C 145.917969 215.28125 150.945312 213.476562 152.414062 210.652344 C 152.863281 209.746094 153.261719 208.902344 153.261719 208.789062 C 153.261719 208.167969 151.734375 208.054688 150.042969 208.503906 Z M 150.042969 208.503906 " fill-opacity="1" fill-rule="nonzero"/><path fill="#ffffff" d="M 236.898438 210.765625 C 235.375 212.34375 234.921875 215 235.714844 217.144531 L 236.335938 218.839844 L 238.03125 216.976562 C 239.667969 215.167969 240.175781 212.570312 239.328125 210.425781 C 238.875 209.183594 238.253906 209.296875 236.898438 210.765625 Z M 236.898438 210.765625 " fill-opacity="1" fill-rule="nonzero"/><path fill="#ffffff" d="M 253.617188 209.917969 C 253.390625 210.085938 253.222656 211.441406 253.222656 212.910156 C 253.222656 215 253.558594 215.902344 254.691406 217.144531 C 256.496094 219.066406 257.175781 218.386719 257.175781 214.546875 C 257.175781 212.570312 256.890625 211.667969 255.875 210.765625 C 254.464844 209.410156 254.179688 209.296875 253.617188 209.917969 Z M 253.617188 209.917969 " fill-opacity="1" fill-rule="nonzero"/><path fill="#ffffff" d="M 134.960938 211.835938 C 133.269531 213.871094 133.15625 214.378906 134.398438 214.832031 C 136.035156 215.453125 139.59375 214.097656 140.78125 212.402344 C 142.191406 210.425781 141.910156 210.085938 138.804688 210.085938 C 136.824219 210.085938 136.148438 210.367188 134.960938 211.835938 Z M 134.960938 211.835938 " fill-opacity="1" fill-rule="nonzero"/><path fill="#ffffff" d="M 153.035156 212.910156 C 151.566406 214.71875 151.285156 216.015625 151.90625 218.386719 C 152.808594 221.664062 156.253906 218.050781 155.972656 214.097656 C 155.859375 212.742188 155.519531 211.5 155.179688 211.386719 C 154.839844 211.273438 153.882812 211.949219 153.035156 212.910156 Z M 153.035156 212.910156 " fill-opacity="1" fill-rule="nonzero"/><path fill="#ffffff" d="M 161.054688 215.566406 C 160.207031 216.46875 159.359375 217.878906 159.132812 218.785156 C 158.738281 220.363281 158.796875 220.363281 160.660156 219.96875 C 162.859375 219.519531 164.328125 218.332031 165.460938 216.1875 C 166.53125 214.097656 166.53125 214.039062 164.386719 214.039062 C 163.085938 214.039062 162.070312 214.492188 161.054688 215.566406 Z M 161.054688 215.566406 " fill-opacity="1" fill-rule="nonzero"/><path fill="#ffffff" d="M 140.667969 215.734375 C 139.367188 216.808594 137.671875 220.648438 138.292969 221.269531 C 138.40625 221.382812 139.425781 221.210938 140.554688 220.816406 C 142.644531 220.140625 144.789062 217.484375 144.789062 215.566406 C 144.789062 214.210938 142.472656 214.320312 140.667969 215.734375 Z M 140.667969 215.734375 " fill-opacity="1" fill-rule="nonzero"/><path fill="#ffffff" d="M 168.226562 217.652344 C 166.25 218.5 165.121094 220.589844 165.121094 223.414062 L 165.121094 225.390625 L 166.8125 224.488281 C 169.128906 223.300781 170.316406 221.269531 170.089844 218.953125 C 169.921875 216.976562 169.921875 216.976562 168.226562 217.652344 Z M 168.226562 217.652344 " fill-opacity="1" fill-rule="nonzero"/><path fill="#ffffff" d="M 178.675781 225.671875 C 178.675781 226.578125 179.578125 229.0625 180.652344 231.207031 C 182.402344 234.597656 182.628906 235.558594 182.628906 239.398438 C 182.628906 242.277344 182.34375 244.140625 181.835938 244.875 C 180.765625 246.230469 180.199219 245.664062 178.957031 241.824219 C 178.449219 240.246094 177.828125 238.890625 177.542969 238.890625 C 176.640625 238.890625 176.246094 245.101562 176.921875 248.375 C 177.261719 250.242188 178.222656 252.554688 179.238281 253.855469 C 182.570312 258.371094 183.8125 260.859375 184.605469 264.640625 C 185.675781 269.722656 185.675781 275.316406 184.546875 278.589844 C 182.910156 283.449219 178.164062 286.046875 175.003906 283.84375 C 174.382812 283.449219 172.632812 282.882812 171.050781 282.65625 C 169.523438 282.429688 165.910156 281.414062 162.972656 280.339844 C 153.035156 276.726562 150.210938 277.914062 141.796875 289.039062 C 139.648438 291.976562 137.390625 294.628906 136.824219 294.96875 C 135.1875 295.984375 135.527344 296.4375 137.617188 295.984375 C 140.835938 295.25 142.867188 293.839844 146.425781 289.773438 C 150.71875 284.972656 152.753906 284.070312 156.308594 285.425781 C 157.664062 285.933594 159.304688 286.949219 159.980469 287.683594 L 161.222656 289.039062 L 158.683594 288.757812 C 154.953125 288.304688 151.566406 289.433594 146.03125 292.992188 C 139.875 296.832031 137.671875 297.621094 133.097656 297.621094 C 128.355469 297.621094 124.851562 298.527344 123.273438 300.21875 C 121.746094 301.859375 122.085938 302.367188 124.121094 301.574219 C 124.964844 301.292969 128.410156 301.011719 131.742188 301.011719 C 136.601562 301.011719 138.578125 300.730469 141.738281 299.710938 C 143.886719 298.976562 146.425781 298.1875 147.332031 297.960938 L 149.023438 297.566406 L 147.21875 299.035156 C 146.199219 299.882812 145.355469 300.730469 145.355469 300.953125 C 145.355469 301.179688 147.21875 300.953125 149.476562 300.390625 C 154.277344 299.148438 155.632812 299.089844 160.375 299.996094 C 164.949219 300.84375 166.925781 300.277344 172.800781 296.378906 C 179.011719 292.371094 181.273438 291.410156 184.941406 291.410156 C 189.855469 291.410156 191.945312 292.371094 202 299.542969 C 204.425781 301.238281 204.992188 301.40625 206.515625 300.953125 C 207.53125 300.671875 209.285156 300.445312 210.527344 300.445312 L 212.671875 300.445312 L 209.960938 298.640625 C 206.460938 296.265625 206.175781 295.136719 208.886719 294.234375 C 211.261719 293.445312 214.535156 293.839844 218.996094 295.363281 C 222.613281 296.605469 224.703125 296.324219 230.632812 293.667969 C 232.945312 292.652344 235.941406 291.691406 237.238281 291.523438 C 240.964844 291.128906 244.917969 292.3125 247.066406 294.628906 C 248.136719 295.703125 250.003906 297.285156 251.246094 298.1875 C 253.390625 299.65625 253.785156 299.710938 258.191406 299.429688 C 264.96875 299.035156 263.894531 298.46875 253.277344 296.71875 C 251.921875 296.492188 250.171875 295.25 247.234375 292.484375 C 243.449219 288.925781 242.886719 288.585938 240.683594 288.585938 C 239.328125 288.585938 236.503906 288.925781 234.300781 289.378906 C 232.15625 289.828125 228.035156 290.507812 225.152344 290.847656 C 218.882812 291.636719 217.414062 291.070312 215.496094 287.34375 C 214.480469 285.199219 213.800781 284.632812 211.035156 283.558594 C 205.554688 281.359375 199.738281 277.40625 195.164062 272.832031 C 190.535156 268.144531 187.9375 264.246094 185.5625 258.542969 C 184.039062 254.703125 183.871094 252.273438 184.320312 239.113281 C 184.546875 233.242188 184.433594 232.675781 183.023438 229.796875 C 182.230469 228.101562 180.875 226.070312 180.085938 225.335938 L 178.675781 224.035156 Z M 191.4375 276.613281 C 192.738281 277.460938 195.671875 284.183594 195.503906 285.875 C 195.164062 289.546875 191.71875 289.207031 189.292969 285.3125 C 188.386719 283.84375 188.21875 282.828125 188.386719 280.679688 C 188.726562 277.066406 189.855469 275.542969 191.4375 276.613281 Z M 191.4375 276.613281 " fill-opacity="1" fill-rule="nonzero"/><path fill="#ffffff" d="M 189.96875 278.363281 C 188.78125 280.566406 189.292969 283.84375 191.097656 285.761719 C 194.429688 289.320312 195.445312 286.496094 192.847656 280.960938 C 191.945312 278.929688 191.042969 277.292969 190.871094 277.292969 C 190.703125 277.292969 190.308594 277.800781 189.96875 278.363281 Z M 189.96875 278.363281 " fill-opacity="1" fill-rule="nonzero"/><path fill="#ffffff" d="M 215.664062 229.625 C 214.253906 231.773438 214.027344 234.425781 215.042969 235.78125 C 215.949219 236.914062 215.949219 236.914062 217.359375 235.21875 C 218.207031 234.203125 218.769531 232.789062 218.769531 231.714844 C 218.769531 227.988281 217.359375 227.027344 215.664062 229.625 Z M 215.664062 229.625 " fill-opacity="1" fill-rule="nonzero"/><path fill="#ffffff" d="M 178.390625 233.128906 C 178.054688 236.066406 178.222656 237.136719 179.296875 239.847656 C 181.328125 244.875 181.667969 244.761719 181.386719 239.171875 C 181.214844 235.5 180.820312 233.46875 179.972656 231.828125 L 178.785156 229.625 Z M 178.390625 233.128906 " fill-opacity="1" fill-rule="nonzero"/><path fill="#ffffff" d="M 222.894531 232.394531 C 221.539062 233.582031 221.425781 233.863281 222.160156 234.371094 C 222.613281 234.652344 224.191406 234.933594 225.605469 234.933594 C 227.582031 234.933594 228.484375 234.652344 229.390625 233.636719 L 230.632812 232.28125 L 229.21875 231.660156 C 226.902344 230.585938 224.644531 230.871094 222.894531 232.394531 Z M 222.894531 232.394531 " fill-opacity="1" fill-rule="nonzero"/><path fill="#ffffff" d="M 220.917969 239 C 218.941406 239.679688 218.941406 240.1875 220.804688 241.65625 C 222.554688 243.011719 225.945312 243.238281 227.523438 242.109375 C 228.765625 241.148438 228.371094 240.414062 225.886719 239.226562 C 223.742188 238.210938 223.121094 238.15625 220.917969 239 Z M 220.917969 239 " fill-opacity="1" fill-rule="nonzero"/><path fill="#ffffff" d="M 216.511719 243.914062 C 216.511719 246.457031 218.714844 249.617188 220.523438 249.617188 C 222.726562 249.617188 221.3125 243.632812 218.828125 242.277344 C 216.964844 241.316406 216.511719 241.65625 216.511719 243.914062 Z M 216.511719 243.914062 " fill-opacity="1" fill-rule="nonzero"/><path fill="#ffffff" d="M 174.324219 248.207031 C 173.648438 252.046875 173.988281 255.324219 175.90625 261.535156 C 177.882812 268.144531 177.941406 272.773438 176.132812 277.742188 C 174.4375 282.429688 174.722656 283.503906 177.65625 283.503906 C 179.859375 283.503906 182.851562 280.566406 183.699219 277.574219 C 185.621094 270.628906 183.53125 261.480469 178.5625 254.871094 C 177.488281 253.402344 176.414062 250.972656 175.851562 248.660156 L 174.890625 244.820312 Z M 174.324219 248.207031 " fill-opacity="1" fill-rule="nonzero"/><path fill="#ffffff" d="M 194.203125 256.394531 C 193.46875 257.242188 193.300781 257.976562 193.640625 259.613281 C 194.261719 263.058594 197.253906 268.085938 200.417969 270.964844 C 203.128906 273.453125 209.507812 277.121094 210.128906 276.558594 C 210.242188 276.386719 210.128906 275.257812 209.792969 274.015625 C 209.285156 272.152344 208.664062 271.476562 205.953125 269.894531 C 202 267.523438 200.191406 265.261719 201.039062 263.851562 C 201.714844 262.835938 204.3125 262.609375 207.082031 263.398438 C 210.242188 264.300781 208.605469 262.15625 203.464844 258.710938 C 197.988281 254.984375 195.957031 254.476562 194.203125 256.394531 Z M 194.203125 256.394531 " fill-opacity="1" fill-rule="nonzero"/><path fill="#ffffff" d="M 202.109375 264.300781 C 201.886719 264.640625 202.167969 265.488281 202.789062 266.109375 C 203.75 267.238281 207.703125 269.949219 208.324219 269.949219 C 208.492188 269.949219 208.605469 268.933594 208.605469 267.691406 C 208.605469 265.714844 208.378906 265.320312 207.082031 264.8125 C 204.371094 263.792969 202.5625 263.566406 202.109375 264.300781 Z M 202.109375 264.300781 " fill-opacity="1" fill-rule="nonzero"/><path fill="#ffffff" d="M 180.367188 293.332031 C 179.296875 293.78125 176.300781 295.476562 173.761719 297.171875 C 167.773438 301.179688 165.289062 301.914062 160.261719 301.066406 C 158.230469 300.671875 156.421875 300.503906 156.253906 300.671875 C 155.859375 301.066406 162.296875 303.328125 165.683594 303.949219 C 169.414062 304.625 173.195312 304.230469 181.046875 302.308594 C 187.03125 300.84375 187.089844 300.84375 191.777344 301.746094 C 196.691406 302.761719 200.246094 302.929688 202 302.195312 C 202.84375 301.914062 202.28125 301.238281 198.890625 298.753906 C 192.679688 294.066406 189.292969 292.539062 185.507812 292.597656 C 183.757812 292.597656 181.441406 292.933594 180.367188 293.332031 Z M 180.367188 293.332031 " fill-opacity="1" fill-rule="nonzero"/><path fill="#ffffff" d="M 230.40625 295.023438 C 227.074219 296.378906 224.53125 297.621094 224.757812 297.734375 C 226.058594 298.527344 230.40625 298.976562 248.363281 300.277344 L 252.261719 300.558594 L 248.363281 297.226562 C 241.925781 291.691406 239.496094 291.410156 230.40625 295.023438 Z M 230.40625 295.023438 " fill-opacity="1" fill-rule="nonzero"/><path fill="#ffffff" d="M 209.339844 295.195312 C 208.605469 295.308594 208.042969 295.644531 208.042969 295.871094 C 208.042969 296.097656 209.507812 297.113281 211.316406 298.132812 C 214.761719 300.164062 224.023438 302.367188 232.210938 303.101562 C 235.882812 303.382812 236.277344 303.328125 235.941406 302.480469 C 235.429688 301.066406 234.019531 300.503906 229.558594 299.882812 C 227.355469 299.597656 223.457031 298.46875 220.859375 297.398438 C 216.285156 295.476562 211.824219 294.628906 209.339844 295.195312 Z M 209.339844 295.195312 " fill-opacity="1" fill-rule="nonzero"/></svg>