<svg xmlns="http://www.w3.org/2000/svg" xmlns:xlink="http://www.w3.org/1999/xlink" width="500" zoomAndPan="magnify" viewBox="0 0 375 374.999991" height="500" preserveAspectRatio="xMidYMid meet" version="1.2"><defs><clipPath id="0552ea5288"><path d="M 7.570312 46 L 367.570312 46 L 367.570312 329 L 7.570312 329 Z M 7.570312 46 "/></clipPath></defs><g id="36a91ccfe7"><g clip-rule="nonzero" clip-path="url(#0552ea5288)"><path style=" stroke:none;fill-rule:nonzero;fill:#000000;fill-opacity:1;" d="M 63.796875 46.929688 L 311.199219 46.929688 C 313.042969 46.929688 314.878906 47.019531 316.710938 47.203125 C 318.542969 47.382812 320.363281 47.652344 322.171875 48.011719 C 323.976562 48.371094 325.761719 48.816406 327.523438 49.351562 C 329.285156 49.886719 331.015625 50.507812 332.71875 51.210938 C 334.417969 51.914062 336.082031 52.703125 337.707031 53.570312 C 339.332031 54.4375 340.90625 55.382812 342.4375 56.40625 C 343.96875 57.429688 345.449219 58.527344 346.871094 59.695312 C 348.292969 60.863281 349.65625 62.097656 350.960938 63.398438 C 352.261719 64.703125 353.496094 66.066406 354.664062 67.488281 C 355.832031 68.910156 356.929688 70.390625 357.953125 71.921875 C 358.976562 73.453125 359.921875 75.027344 360.789062 76.652344 C 361.65625 78.277344 362.445312 79.941406 363.148438 81.640625 C 363.851562 83.34375 364.472656 85.074219 365.007812 86.835938 C 365.542969 88.597656 365.988281 90.382812 366.347656 92.1875 C 366.707031 93.996094 366.976562 95.816406 367.15625 97.648438 C 367.339844 99.480469 367.429688 101.316406 367.429688 103.160156 L 367.429688 271.84375 C 367.429688 273.683594 367.339844 275.523438 367.15625 277.355469 C 366.976562 279.1875 366.707031 281.007812 366.347656 282.8125 C 365.988281 284.617188 365.542969 286.402344 365.007812 288.164062 C 364.472656 289.925781 363.851562 291.660156 363.148438 293.359375 C 362.445312 295.0625 361.65625 296.722656 360.789062 298.347656 C 359.921875 299.972656 358.976562 301.550781 357.953125 303.082031 C 356.929688 304.613281 355.832031 306.089844 354.664062 307.511719 C 353.496094 308.9375 352.261719 310.300781 350.960938 311.601562 C 349.65625 312.902344 348.292969 314.140625 346.871094 315.308594 C 345.449219 316.476562 343.96875 317.570312 342.4375 318.59375 C 340.90625 319.617188 339.332031 320.5625 337.707031 321.429688 C 336.082031 322.300781 334.417969 323.085938 332.71875 323.789062 C 331.015625 324.496094 329.285156 325.113281 327.523438 325.648438 C 325.761719 326.183594 323.976562 326.632812 322.171875 326.992188 C 320.363281 327.351562 318.542969 327.621094 316.710938 327.800781 C 314.878906 327.980469 313.042969 328.070312 311.199219 328.070312 L 63.796875 328.070312 C 61.957031 328.070312 60.117188 327.980469 58.285156 327.800781 C 56.453125 327.621094 54.632812 327.351562 52.828125 326.992188 C 51.023438 326.632812 49.238281 326.183594 47.476562 325.648438 C 45.714844 325.113281 43.980469 324.496094 42.28125 323.789062 C 40.578125 323.085938 38.914062 322.300781 37.292969 321.429688 C 35.667969 320.5625 34.089844 319.617188 32.558594 318.59375 C 31.027344 317.570312 29.550781 316.476562 28.125 315.308594 C 26.703125 314.140625 25.339844 312.902344 24.039062 311.601562 C 22.734375 310.300781 21.5 308.9375 20.332031 307.511719 C 19.164062 306.089844 18.070312 304.613281 17.046875 303.082031 C 16.023438 301.550781 15.078125 299.972656 14.207031 298.347656 C 13.339844 296.722656 12.554688 295.0625 11.847656 293.359375 C 11.144531 291.660156 10.523438 289.925781 9.992188 288.164062 C 9.457031 286.402344 9.007812 284.617188 8.648438 282.8125 C 8.289062 281.007812 8.019531 279.1875 7.839844 277.355469 C 7.660156 275.523438 7.570312 273.683594 7.570312 271.84375 L 7.570312 103.160156 C 7.570312 101.316406 7.660156 99.480469 7.839844 97.648438 C 8.019531 95.816406 8.289062 93.996094 8.648438 92.1875 C 9.007812 90.382812 9.457031 88.597656 9.992188 86.835938 C 10.523438 85.074219 11.144531 83.34375 11.847656 81.640625 C 12.554688 79.941406 13.339844 78.277344 14.207031 76.652344 C 15.078125 75.027344 16.023438 73.453125 17.046875 71.921875 C 18.070312 70.390625 19.164062 68.910156 20.332031 67.488281 C 21.5 66.066406 22.734375 64.703125 24.039062 63.398438 C 25.339844 62.097656 26.703125 60.863281 28.125 59.695312 C 29.550781 58.527344 31.027344 57.429688 32.558594 56.40625 C 34.089844 55.382812 35.667969 54.4375 37.292969 53.570312 C 38.914062 52.703125 40.578125 51.914062 42.28125 51.210938 C 43.980469 50.507812 45.714844 49.886719 47.476562 49.351562 C 49.238281 48.816406 51.023438 48.371094 52.828125 48.011719 C 54.632812 47.652344 56.453125 47.382812 58.285156 47.203125 C 60.117188 47.019531 61.957031 46.929688 63.796875 46.929688 Z M 63.796875 46.929688 "/></g><path style=" stroke:none;fill-rule:nonzero;fill:#ffffff;fill-opacity:1;" d="M 188.972656 283.726562 L 156.480469 283.726562 C 153.816406 283.726562 151.777344 283.019531 150.363281 281.601562 C 148.96875 280.1875 147.855469 278.988281 147.015625 278.003906 L 138.59375 266.847656 C 132.140625 268.984375 124.777344 270.050781 116.5 270.050781 C 101.265625 270.050781 88.058594 267.566406 76.878906 262.601562 C 65.699219 257.636719 56.929688 250.152344 50.574219 240.144531 C 44.191406 230.117188 40.75 217.570312 40.246094 202.503906 C 40.078125 195.402344 39.992188 188.253906 39.992188 181.058594 C 39.992188 173.835938 40.078125 166.675781 40.246094 159.574219 C 40.75 144.675781 44.226562 132.128906 50.679688 121.933594 C 57.132812 111.761719 65.988281 104.109375 77.238281 98.972656 C 88.515625 93.839844 101.601562 91.273438 116.5 91.273438 C 131.539062 91.273438 144.699219 93.839844 155.976562 98.972656 C 167.226562 104.109375 176.117188 111.761719 182.640625 121.933594 C 189.191406 132.128906 192.632812 144.675781 192.96875 159.574219 C 193.304688 166.675781 193.472656 173.835938 193.472656 181.058594 C 193.472656 188.253906 193.304688 195.402344 192.96875 202.503906 C 192.128906 223.042969 186.167969 238.933594 175.082031 250.1875 L 193.222656 276.023438 C 193.390625 276.191406 193.542969 276.515625 193.6875 276.996094 C 193.855469 277.5 193.941406 278.003906 193.941406 278.507812 C 194.109375 279.828125 193.699219 281.027344 192.71875 282.105469 C 191.710938 283.1875 190.460938 283.726562 188.972656 283.726562 Z M 116.5 234.316406 C 125.253906 234.316406 132.40625 231.664062 137.945312 226.363281 C 143.511719 221.0625 146.449219 212.617188 146.761719 201.03125 C 147.097656 193.738281 147.265625 186.863281 147.265625 180.410156 C 147.265625 173.957031 147.097656 167.25 146.761719 160.292969 C 146.59375 152.519531 145.191406 146.199219 142.550781 141.328125 C 139.914062 136.433594 136.398438 132.824219 132.007812 130.496094 C 127.617188 128.195312 122.449219 127.042969 116.5 127.042969 C 110.859375 127.042969 105.8125 128.195312 101.347656 130.496094 C 96.863281 132.824219 93.335938 136.433594 90.769531 141.328125 C 88.203125 146.199219 86.761719 152.519531 86.449219 160.292969 C 86.28125 167.25 86.199219 173.957031 86.199219 180.410156 C 86.199219 186.863281 86.28125 193.738281 86.449219 201.03125 C 86.929688 212.617188 89.90625 221.0625 95.375 226.363281 C 100.84375 231.664062 107.886719 234.316406 116.5 234.316406 Z M 272.929688 270.050781 C 262.15625 270.050781 253.003906 268.851562 245.472656 266.453125 C 237.9375 264.054688 231.820312 261.113281 227.121094 257.636719 C 222.394531 254.15625 218.867188 250.558594 216.539062 246.839844 C 214.238281 243.121094 213 239.859375 212.832031 237.050781 C 212.664062 235.226562 213.242188 233.730469 214.558594 232.554688 C 215.878906 231.402344 217.285156 230.824219 218.769531 230.824219 L 247.089844 230.824219 C 247.59375 230.824219 248.050781 230.910156 248.460938 231.078125 C 248.867188 231.246094 249.324219 231.582031 249.828125 232.085938 C 251.984375 233.238281 254.132812 234.675781 256.269531 236.402344 C 258.425781 238.15625 260.910156 239.691406 263.71875 241.011719 C 266.546875 242.328125 269.941406 242.988281 273.902344 242.988281 C 278.53125 242.988281 282.417969 242.042969 285.5625 240.144531 C 288.726562 238.226562 290.3125 235.539062 290.3125 232.085938 C 290.3125 229.421875 289.566406 227.226562 288.078125 225.5 C 286.566406 223.75 283.546875 222.046875 279.011719 220.390625 C 274.453125 218.734375 267.617188 217.078125 258.5 215.425781 C 249.910156 213.433594 242.378906 210.828125 235.898438 207.613281 C 229.445312 204.375 224.480469 200.152344 221 194.949219 C 217.546875 189.742188 215.820312 183.410156 215.820312 175.949219 C 215.820312 169.324219 217.96875 162.957031 222.261719 156.839844 C 226.554688 150.722656 232.839844 145.707031 241.117188 141.796875 C 249.394531 137.910156 259.664062 135.96875 271.921875 135.96875 C 281.351562 135.96875 289.628906 137.082031 296.753906 139.3125 C 303.878906 141.570312 309.839844 144.425781 314.636719 147.878906 C 319.433594 151.355469 323.070312 154.917969 325.542969 158.566406 C 328.035156 162.214844 329.367188 165.523438 329.535156 168.5 C 329.703125 170.152344 329.199219 171.605469 328.023438 172.851562 C 326.871094 174.101562 325.554688 174.722656 324.066406 174.722656 L 298.226562 174.722656 C 297.578125 174.722656 296.921875 174.59375 296.25 174.328125 C 295.601562 174.089844 295.023438 173.800781 294.519531 173.464844 C 292.53125 172.480469 290.539062 171.160156 288.546875 169.507812 C 286.554688 167.851562 284.242188 166.363281 281.601562 165.042969 C 278.964844 163.699219 275.652344 163.027344 271.671875 163.027344 C 267.207031 163.027344 263.730469 164.023438 261.234375 166.015625 C 258.761719 168.007812 257.527344 170.574219 257.527344 173.714844 C 257.527344 175.875 258.222656 177.867188 259.613281 179.691406 C 261.03125 181.511719 263.933594 183.167969 268.324219 184.65625 C 272.714844 186.144531 279.539062 187.800781 288.800781 189.621094 C 300.21875 191.445312 309.324219 194.382812 316.113281 198.4375 C 322.902344 202.492188 327.75 207.207031 330.652344 212.582031 C 333.554688 217.957031 335.003906 223.628906 335.003906 229.601562 C 335.003906 237.542969 332.605469 244.574219 327.808594 250.691406 C 322.984375 256.808594 315.980469 261.570312 306.792969 264.976562 C 297.628906 268.359375 286.339844 270.050781 272.929688 270.050781 Z M 272.929688 270.050781 "/></g></svg>